<svg xmlns="http://www.w3.org/2000/svg" viewBox="0 0 448.1 351.35"><style><![CDATA[.A{isolation:isolate}.Av,.Aw,.Ax,.Ay,.Az,.BA,.BB,.BC,.BD,.BE,.BF,.BG,.BH,.BI,.BJ,.BK,.BL,.BM,.BN,.BO,.BP,.BQ,.BR,.BS,.BT,.BU,.BV,.BW,.BX,.BY,.BZ,.Ba,.Bb,.Bc,.Bd,.Be,.Bf,.Bg,.Bh,.Bi,.Bj,.Bk,.Bl,.Bm,.Bn,.AV,.AW,.AX,.AY,.AZ,.Aa,.Ab,.Ac,.Ad,.Ae,.Af,.Ag,.Ah,.Ai,.Aj,.Ak,.Al,.Am,.An,.Ao,.Ap,.Aq,.Ar,.As,.At,.Au{mix-blend-mode:screen}.Bp{opacity:.5}.Bq{opacity:.3}.Br{opacity:.6}.Bs{opacity:.2}.Bt{opacity:.4}.Bu{opacity:.7}.Bv{opacity:.1}.Bw{opacity:.64}.Bx{opacity:.8}.By{opacity:.73}.Bz{opacity:.75}.CA{opacity:.62}.CB{opacity:.76}.CC{opacity:.17}.CD{opacity:.52}.CE{opacity:.53}.CF{opacity:.23}.CG{opacity:.47}.CH{opacity:.43}.CI{opacity:.67}.CJ{opacity:.34}.CK{opacity:.65}.CL{opacity:.22}.CM{opacity:.28}.CN{opacity:.35}.CO{opacity:.72}.CP{opacity:.16}.CQ{opacity:.32}.CR{opacity:.26}.CS{opacity:.46}.CT{opacity:.27}.CU{opacity:.68}.CV{opacity:.42}.CW{opacity:.56}.CX{opacity:.77}.CY{opacity:.12}.CZ{opacity:.14}.Ca{opacity:.38}.Cb{opacity:.37}.Cc{opacity:.54}.Cd{opacity:.15}.Ce{opacity:.78}.Cf{opacity:.58}.Cg{opacity:.44}.Ch{opacity:.33}.Ci{opacity:.55}.Cj{opacity:.18}.Ck{opacity:.74}.Cl{opacity:.25}.Cm{opacity:.24}.Cn{opacity:.63}.Co{opacity:.13}.Cp{opacity:.36}.Cq{opacity:.48}.Cr{opacity:.45}.Cs{opacity:.66}.Ct{opacity:.57}]]></style><g class="A"><g fill="#231f20" class="Bx"><path d="M161.26,99a.74.74,0,0,1,0-1.47.74.74,0,0,1,0,1.47Z" class="CW"/><path d="M150.58 140.7a.23.23 0 1 1 .23-.23.23.23 0 0 1-.23.23z" class="CK"/><circle cx="152.44" cy="109.95" r=".27" class="CR"/><path d="M187 129.54a.17.17 0 1 1 .17-.17.17.17 0 0 1-.17.17z" class="CG"/><path d="M157 103.54a1.22 1.22 0 1 1 1.23-1.22 1.22 1.22 0 0 1-1.23 1.22z" class="Bp"/><path d="M180.86 91.75a1 1 0 1 1 1-1 1 1 0 0 1-1 1z" class="CS"/><path d="M201.2 141a.3.3 0 1 1 .29-.29.29.29 0 0 1-.29.29z" class="Bw"/><path d="M198.53 115.1a.95.95 0 1 1 .95-.95.95.95 0 0 1-.95.95z" class="CS"/><path d="M207.7 129.46a1.07 1.07 0 1 1 1.07-1.07 1.07 1.07 0 0 1-1.07 1.07z" class="CA"/><path d="M219.93 74.44a.18.18 0 0 1-.19-.19.18.18 0 0 1 .19-.18.18.18 0 0 1 .18.18.18.18 0 0 1-.18.19z" class="CX"/><path d="M276.32 82.53a.35.35 0 1 1 .35-.35.35.35 0 0 1-.35.35z" class="CK"/><path d="M225.06 123.93a.1.1 0 0 1-.1-.09.1.1 0 0 1 .1-.1.09.09 0 0 1 .1.1.09.09 0 0 1-.1.09zm61.94-20.2a.63.63 0 1 1 .62-.62.63.63 0 0 1-.62.62z" class="CA"/><circle cx="244.6" cy="140.7" r=".25" class="Bp"/><path d="M216.12 213.4a.77.77 0 1 1 .77-.77.77.77 0 0 1-.77.77z" class="CT"/><path d="M219 149.16a.36.36 0 1 1 .36-.36.36.36 0 0 1-.36.36z" class="Bs"/><path d="M219.1 151.53a.8.8 0 1 1 .79-.79.79.79 0 0 1-.79.79z" class="Bw"/><path d="M191.3 200.15a.26.26 0 1 1 .26-.26.26.26 0 0 1-.26.26z" class="CY"/><path d="M156.77 191.3a1.13 1.13 0 1 1 1.13-1.13 1.14 1.14 0 0 1-1.13 1.13z" class="CL"/><path d="M124.7 175.75a.84.84 0 1 1 0-1.68.84.84 0 1 1 0 1.68z" class="Br"/><path d="M95.2 173.5a.44.44 0 0 1-.44-.44.44.44 0 0 1 .44-.43.43.43 0 0 1 .43.43.44.44 0 0 1-.43.44z" class="CP"/><path d="M101.1 170.62a.28.28 0 1 1 .27-.27.27.27 0 0 1-.27.27z" class="Bv"/><path d="M65.6 179.06a1.05 1.05 0 1 1 1-1.05 1 1 0 0 1-1 1.05z" class="CS"/><path d="M98.82 138.8a1 1 0 1 1 1-1 1 1 0 0 1-1 1z" class="Bu"/><path d="M108.27 139.7a.65.65 0 1 1 0-1.3.65.65 0 1 1 0 1.3z" class="Br"/><path d="M68.75 99.22a.4.4 0 0 1-.4-.4.41.41 0 0 1 .4-.41.42.42 0 0 1 .41.41.41.41 0 0 1-.41.4z" class="Bx"/><circle cx="88.31" cy="93.21" r=".25" class="CS"/><path d="M45.66 53a.65.65 0 1 1 .65-.65.65.65 0 0 1-.65.65z" class="Bt"/><circle cx="89.91" cy="63.88" r=".99" class="CH"/><path d="M125 104.1a.58.58 0 0 1-.58-.58.57.57 0 0 1 .58-.53.56.56 0 0 1 .57.57.57.57 0 0 1-.57.54z" class="Bp"/><circle cx="95.92" cy="35.36" r=".31" class="CF"/><circle cx="112.45" cy="48.88" r=".93" class="CY"/><path d="M143.84 3.74a.68.68 0 1 1 .68-.68.67.67 0 0 1-.68.68z" class="CZ"/><path d="M182.13,16.47a.2.2,0,1,1,0-.4.2.2,0,1,1,0,.4Z" class="Br"/><path d="M187.5 16a.21.21 0 1 1 0-.42.21.21 0 1 1 0 .42z" class="CH"/><path d="M201.55 11.6a.74.74 0 1 1 .73-.73.74.74 0 0 1-.73.73z" class="CB"/><path d="M229 21.93a.28.28 0 1 1 .28-.28.28.28 0 0 1-.28.28z" class="Bx"/><path d="M232.34 17.28a.41.41 0 1 1 .42-.41.41.41 0 0 1-.42.41z" class="Bt"/><path d="M244.7 49.77a.78.78 0 1 1 .78-.78.78.78 0 0 1-.78.78z" class="Bw"/><path d="M282.4 57a1 1 0 1 1 1-.95 1 1 0 0 1-1 .95z" class="Bx"/><path d="M305.2 92.25a.27.27 0 1 1 .27-.27.27.27 0 0 1-.27.27z" class="CC"/><path d="M312.9 61.8a.79.79 0 0 1 0-1.57.79.79 0 1 1 0 1.57z" class="Ca"/><path d="M340.8 91.24a.66.66 0 0 1-.67-.66.67.67 0 0 1 1.34 0 .66.66 0 0 1-.67.66z" class="Bu"/><circle cx="331.44" cy="124" r=".46" class="Bs"/><path d="M359.14 136.05a.79.79 0 1 1 .78-.79.79.79 0 0 1-.78.79z" class="Bz"/><circle cx="385.21" cy="93.71" r=".38" class="Bp"/><path d="M354.62 144.83a.67.67 0 1 1 .67-.67.67.67 0 0 1-.67.67z" class="CD"/><path d="M362 138.53a1 1 0 1 1 1-1 1 1 0 0 1-1 1z" class="CM"/><circle cx="360.74" cy="209.88" r=".15" class="Cj"/><circle cx="387.34" cy="254.13" r=".28" class="Bz"/><path d="M305.44 263a.63.63 0 1 1 .63-.62.62.62 0 0 1-.63.62zm.56 36a.37.37 0 0 1 0-.74.37.37 0 0 1 0 .74z" class="Ch"/><circle cx="260.7" cy="330.9" r=".83" class="Bq"/><path d="M271.93 345.67a.52.52 0 1 1 .52-.51.51.51 0 0 1-.52.51z" class="Bt"/><circle cx="270.9" cy="333.81" r=".33" class="CI"/><path d="M231.83 332a.45.45 0 1 1 .45-.45.45.45 0 0 1-.45.45z" class="CJ"/><path d="M236.77,339a.88.88,0,1,1,0-1.75.88.88,0,0,1,0,1.75Z" class="CT"/><path d="M192.52 294.45a1.21 1.21 0 1 1 1.21-1.2 1.21 1.21 0 0 1-1.21 1.2z" class="CI"/><path d="M156.36,319.12a.91.91,0,0,1,0-1.82.91.91,0,0,1,0,1.82Z" class="CG"/><circle cx="93.53" cy="335.73" r=".54" class="Cb"/><path d="M81.7 314.17a.36.36 0 1 1 .36-.35.36.36 0 0 1-.36.35z" class="CE"/><path d="M62.32,315.35a.3.3,0,1,1,0-.59.3.3,0,0,1,0,.59Z" class="CF"/><path d="M61.73 342.26a.26.26 0 0 1-.27-.26.27.27 0 0 1 .53 0 .26.26 0 0 1-.26.26z" class="Bp"/><path d="M36.86 339a.43.43 0 1 1 .43-.43.43.43 0 0 1-.43.43z" class="CD"/><circle cx="77.27" cy="314.76" r=".13" class="CD"/><circle cx="14.29" cy="297.22" r="1.22" class="Bs"/><circle cx="1.58" cy="263.13" r="1.09" class="Bw"/><path d="M14.9 226.5a.29.29 0 0 1 0-.57.29.29 0 0 1 0 .57z" class="CQ"/><path d="M29.77 229.7a.23.23 0 1 1 .22-.22.22.22 0 0 1-.22.22z" class="CA"/><path d="M11.37 257.17a1.11 1.11 0 1 1 1.11-1.11 1.11 1.11 0 0 1-1.11 1.11z" class="CF"/><path d="M38.33 206.42a1 1 0 1 1 1-1 1 1 0 0 1-1 1z" class="Ci"/><circle cx="1.35" cy="167.26" r=".27" class="CL"/><circle cx="20.67" cy="168.48" r=".73" class="Bq"/><path d="M27.16 159.6a.63.63 0 1 1 0-1.26.63.63 0 0 1 0 1.26z" class="CF"/><path d="M14.25 162.45a.49.49 0 0 1-.49-.49.5.5 0 1 1 1 0 .49.49 0 0 1-.51.49z" class="Br"/><path d="M21 90.36a.42.42 0 1 1 .41-.41.42.42 0 0 1-.41.41z" class="Cp"/><path d="M3.9 86a.95.95 0 0 1 0-1.89.95.95 0 1 1 0 1.89z" class="Ci"/><circle cx="26.89" cy="23.81" r=".61" class="CA"/><path d="M1.57 6.44a.92.92 0 1 1 .91-.91.92.92 0 0 1-.91.91z" class="Br"/><path d="M48.38,16a1.06,1.06,0,0,1,0-2.12,1.06,1.06,0,1,1,0,2.12Z" class="CE"/><path d="M281.3 26.38a.93.93 0 1 1 .92-.93.93.93 0 0 1-.92.93z" class="Cc"/><path d="M243.42 30.68a.91.91 0 1 1 .91-.91.91.91 0 0 1-.91.91zm29.3 23.64a.84.84 0 1 1 .84-.84.85.85 0 0 1-.84.84z" class="CY"/><path d="M281.77,6.15a.48.48,0,1,1,0-1,.48.48,0,0,1,0,1Z" class="Ch"/><path d="M253.42 19.2a1 1 0 1 1 1-1 1 1 0 0 1-1 1z" class="Bq"/><circle cx="256.23" cy="35.13" r=".28" class="Ch"/><path d="M313.08 89.45a.69.69 0 1 1 .69-.69.69.69 0 0 1-.69.69z" class="Bp"/><path d="M330.06 62a.74.74 0 1 1 .73-.73.73.73 0 0 1-.73.73z" class="Bq"/><path d="M333.52 75.8a.22.22 0 1 1 .22-.22.22.22 0 0 1-.22.22z" class="CU"/><path d="M364.9 134.67a.61.61 0 1 1 0-1.23.62.62 0 0 1 .62.62.61.61 0 0 1-.62.61z" class="CA"/><path d="M372.58 153.88a.39.39 0 0 1-.38-.39.38.38 0 1 1 .76 0 .39.39 0 0 1-.38.39z" class="CM"/><circle cx="328.92" cy="176.43" r=".56" class="Bs"/><path d="M393.52 187.32a.11.11 0 0 1-.11-.11.11.11 0 0 1 .11-.1.11.11 0 0 1 .1.1.11.11 0 0 1-.1.11z" class="Cr"/><circle cx="379.03" cy="228.59" r=".67" class="Br"/><path d="M384,216.86a1.18,1.18,0,1,1,0-2.35,1.18,1.18,0,0,1,0,2.35Z" class="Bu"/><path d="M421.62 226.8a.25.25 0 1 1 .24-.24.25.25 0 0 1-.24.24z" class="CT"/><path d="M398.78 246a.64.64 0 0 1-.63-.64.63.63 0 0 1 .63-.63.64.64 0 0 1 .64.63.64.64 0 0 1-.64.64zm-17.55 19.1a1 1 0 1 1 1-1 1 1 0 0 1-1 1z" class="Bu"/><circle cx="395.44" cy="250.94" r=".69" class="Bv"/><path d="M398.5 249.26a1 1 0 1 1 1-1 1 1 0 0 1-1 1z" class="Ct"/><path d="M394.46 282.92a.56.56 0 1 1 .55-.55.56.56 0 0 1-.55.55z" class="CM"/><path d="M399.13 283.27a.72.72 0 1 1 .71-.72.71.71 0 0 1-.71.72z" class="Cp"/><circle cx="364.76" cy="270.07" r=".54" class="Br"/><path d="M411.84 290.28a.69.69 0 1 1 .69-.68.69.69 0 0 1-.69.68z" class="CH"/><path d="M428.86,296.22a.11.11,0,0,1,0-.22.11.11,0,1,1,0,.22Z" class="Cs"/><path d="M395.52 320.9a1.21 1.21 0 1 1 1.2-1.21 1.2 1.2 0 0 1-1.2 1.21z" class="Cp"/><path d="M431.63 331.3a.65.65 0 1 1 .64-.64.64.64 0 0 1-.64.64z" class="Cm"/><path d="M390.4 344.56a.41.41 0 1 1 .41-.41.41.41 0 0 1-.41.41z" class="Br"/><circle cx="69.33" cy="310.57" r=".65" class="CG"/><circle cx="51.33" cy="330.11" r=".24" class="Br"/><path d="M51.23 268.92a.51.51 0 1 1 .51-.51.51.51 0 0 1-.51.51z" class="By"/><path d="M102.15 278a.34.34 0 0 1-.34-.34.35.35 0 0 1 .34-.34.34.34 0 0 1 0 .68z" class="Bp"/><circle cx="89.79" cy="339.65" r=".71" class="CE"/><path d="M96.64 294.07a.45.45 0 1 1 .45-.45.45.45 0 0 1-.45.45z" class="Bx"/><path d="M105.58 317.9a.18.18 0 1 1 0-.36.18.18 0 0 1 0 .36z" class="CC"/><path d="M155.05 293a.41.41 0 1 1 .4-.4.4.4 0 0 1-.4.4z" class="Br"/><path d="M216.43 324.18a.88.88 0 1 1 .88-.87.87.87 0 0 1-.88.87z" class="Bp"/><path d="M134.24 317.23a.79.79 0 1 1 .79-.79.78.78 0 0 1-.79.79z" class="CK"/><path d="M82.65 346.94a.87.87 0 1 1 .87-.87.87.87 0 0 1-.87.87z" class="CV"/><path d="M89.37 340.78a.8.8 0 1 1 .8-.8.8.8 0 0 1-.8.8z" class="Bw"/><path d="M126 314.25a.27.27 0 1 1 .27-.27.27.27 0 0 1-.27.27z" class="Br"/><path d="M122.53 294a.87.87 0 1 1 .86-.87.87.87 0 0 1-.86.87z" class="Bu"/><path d="M132,279a.41.41,0,1,1,0-.81.41.41,0,1,1,0,.81Z" class="Bp"/><path d="M121 265.16a.81.81 0 1 1 .8-.81.81.81 0 0 1-.8.81z" class="Cs"/><path d="M130.85 263.77a.81.81 0 1 1 .81-.81.81.81 0 0 1-.81.81z" class="CL"/><path d="M143.7 275.5a.39.39 0 1 1 .4-.39.39.39 0 0 1-.4.39z" class="Cb"/><path d="M150.12 245.86a.36.36 0 1 1 .36-.36.36.36 0 0 1-.36.36z" class="Bu"/><circle cx="175.9" cy="257.34" r=".65" class="CL"/><path d="M146.77,265.63a.39.39,0,0,1,0-.78.39.39,0,0,1,0,.78Z" class="CD"/><path d="M208.25 287.1a.18.18 0 0 1-.17-.17.18.18 0 0 1 .17-.18.18.18 0 0 1 .18.18.18.18 0 0 1-.18.17z" class="Bx"/><circle cx="200.43" cy="238.99" r=".72" class="Bx"/><path d="M192.56,207.94a.35.35,0,1,1,0-.69.35.35,0,1,1,0,.69Z" class="Bv"/><path d="M206.15,264.33a.67.67,0,0,1,0-1.34.67.67,0,1,1,0,1.34Z" class="CI"/><path d="M222.35 244.7a.25.25 0 0 1-.25-.25.26.26 0 0 1 .25-.26.26.26 0 0 1 .26.26.26.26 0 0 1-.26.25z" class="Br"/><circle cx="254.44" cy="246.8" r="1.1" class="Bp"/><path d="M263.84 219a1.16 1.16 0 1 1 1.17-1.16 1.16 1.16 0 0 1-1.17 1.16z" class="Br"/><path d="M237.66 231.14a.16.16 0 0 1-.16-.16.17.17 0 0 1 .16-.17.18.18 0 0 1 .17.17.17.17 0 0 1-.17.16z" class="CE"/><path d="M264.88,236.48a.34.34,0,1,1,0-.67.34.34,0,0,1,0,.67Z" class="CB"/><path d="M304.35,249.36a.28.28,0,1,1,0-.55.28.28,0,0,1,0,.55Z" class="Cd"/><path d="M309.8 248.74a.49.49 0 1 1 .49-.49.49.49 0 0 1-.49.49z" class="Bw"/><circle cx="322.03" cy="288.24" r=".53" class="Cn"/><path d="M340.9 258a.38.38 0 1 1 .38-.38.38.38 0 0 1-.38.38z" class="CW"/><path d="M344.22 266a.74.74 0 1 1 .73-.73.73.73 0 0 1-.73.73z" class="Bv"/><circle cx="330.49" cy="271.65" r=".28" class="Bt"/><path d="M364.55 282.22a.7.7 0 1 1 .7-.7.7.7 0 0 1-.7.7z" class="CB"/><path d="M335.33 336.27a.45.45 0 1 1 .44-.44.45.45 0 0 1-.44.44z" class="Cn"/><path d="M12 322a.56.56 0 1 1 0-1.12.56.56 0 0 1 0 1.12z" class="CX"/><circle cx="5.87" cy="317.48" r=".76" class="Bv"/><path d="M14.58 266.37a.55.55 0 0 1-.55-.55.55.55 0 0 1 1.09 0 .55.55 0 0 1-.54.55z" class="Bq"/><path d="M50.23 113a.4.4 0 1 1 .41-.4.4.4 0 0 1-.41.4z" class="Br"/><path d="M51.6 12.14a.61.61 0 0 1-.62-.61.62.62 0 1 1 1.23 0 .61.61 0 0 1-.61.61z" class="Ck"/><path d="M23.8,24a.29.29,0,1,1,0-.57.29.29,0,0,1,0,.57Z" class="Bq"/><path d="M36.46 26.73a.7.7 0 1 1 .7-.7.7.7 0 0 1-.7.7z" class="Bv"/><circle cx="58.16" cy="8.62" r=".88" class="Cp"/><circle cx="89.06" cy="27.81" r=".67" class="CA"/><path d="M337.66 9a.87.87 0 1 1 .86-.86.87.87 0 0 1-.86.86z" class="Co"/><path d="M371.6 21.27a.84.84 0 1 1 .83-.83.83.83 0 0 1-.83.83z" class="Bp"/><path d="M389.15 39.86a.17.17 0 0 1-.17-.16.18.18 0 0 1 .17-.17.17.17 0 0 1 .16.17.16.16 0 0 1-.16.16z" class="CC"/><path d="M379.94 16.32a1.38 1.38 0 1 1 1.37-1.38 1.38 1.38 0 0 1-1.37 1.38z" class="Bq"/><circle cx="396.56" cy="26.12" r=".84" class="CP"/><path d="M390.14 38.47a.15.15 0 0 1-.15-.15.16.16 0 0 1 .15-.16.16.16 0 0 1 .16.16.16.16 0 0 1-.16.15z" class="CI"/><path d="M363.48 73.2a.36.36 0 1 1 .36-.36.36.36 0 0 1-.36.36z" class="Bp"/><path d="M388 55.28a.79.79 0 0 1-.78-.79.78.78 0 0 1 .78-.78.79.79 0 0 1 .79.78.8.8 0 0 1-.79.79z" class="Co"/><path d="M373.23 81.23a.41.41 0 1 1 .4-.4.4.4 0 0 1-.4.4z" class="CQ"/><path d="M347.92 75.1a.2.2 0 0 1-.21-.2.21.21 0 1 1 .41 0 .2.2 0 0 1-.2.2z" class="Bq"/><path d="M414 65.42a.45.45 0 1 1 .45-.45.45.45 0 0 1-.45.45z" class="CB"/><path d="M398.4 99.68a.23.23 0 1 1 .23-.23.23.23 0 0 1-.23.23z" class="Bt"/><circle cx="397.61" cy="114.92" r=".53" class="Ca"/><path d="M413.84 150.87a.54.54 0 0 1-.55-.55.55.55 0 1 1 1.1 0 .55.55 0 0 1-.55.55z" class="CB"/><circle cx="409.3" cy="148.41" r=".75" class="Bp"/><circle cx="437.01" cy="134.79" r=".35" class="CU"/><circle cx="420.73" cy="189.72" r=".35" class="By"/><path d="M431.16 188.27a1 1 0 1 1 1-1 1 1 0 0 1-1 1z" class="Bu"/><path d="M445.4 245a.71.71 0 1 1 .71-.71.71.71 0 0 1-.71.71z" class="Br"/><path d="M316.4 141.53a.45.45 0 1 1 .45-.45.45.45 0 0 1-.45.45z" class="By"/><circle cx="228.13" cy="217.14" r=".79" class="Cd"/><path d="M240.72 196.7a.18.18 0 0 1-.18-.17.17.17 0 0 1 .18-.17.17.17 0 0 1 .17.17.18.18 0 0 1-.17.17z" class="Ck"/><circle cx="211.23" cy="221.41" r=".14" class="Bw"/><path d="M246.6 224.73a.57.57 0 0 1-.56-.57.56.56 0 0 1 .56-.56.57.57 0 0 1 .57.56.58.58 0 0 1-.57.57z" class="CW"/><path d="M265.2 233.83a.83.83 0 1 1 .8-.83.84.84 0 0 1-.8.83z" class="Bp"/><circle cx="230.18" cy="204.99" r=".22" class="CV"/><path d="M204.5 250.7a.53.53 0 1 1 0-1.06.52.52 0 0 1 .53.53.53.53 0 0 1-.53.53z" class="Ce"/><path d="M175.67 229.2a.37.37 0 0 1 0-.73.37.37 0 1 1 0 .73z" class="CQ"/><path d="M167.64 245.22a.33.33 0 1 1 .32-.32.33.33 0 0 1-.32.32z" class="CU"/><path d="M178.06 239.18a1.07 1.07 0 1 1 1.07-1.07 1.06 1.06 0 0 1-1.07 1.07z" class="CP"/><path d="M126.25 305.56a.91.91 0 1 1 .91-.91.9.9 0 0 1-.91.91z" class="Bw"/><path d="M120.38 280.2a.32.32 0 0 1-.32-.32.33.33 0 1 1 .65 0 .32.32 0 0 1-.33.32z" class="By"/><path d="M102.77 251.43a.45.45 0 1 1 .45-.45.45.45 0 0 1-.45.45z" class="Bz"/><circle cx="111.14" cy="259.71" r="1.2" class="CF"/><path d="M73.35 289a.24.24 0 1 1 0-.48.24.24 0 0 1 .25.24.25.25 0 0 1-.25.24z" class="Cq"/><path d="M39.57 265.17a.25.25 0 0 1-.25-.25.26.26 0 0 1 .25-.26.26.26 0 0 1 .26.26.26.26 0 0 1-.26.25z" class="Bu"/><circle cx="45.24" cy="262.46" r=".38" class="CQ"/><path d="M43.1 274.83a.24.24 0 1 1 0-.47.24.24 0 0 1 0 .47z" class="CN"/><path d="M23.25 262.67a.22.22 0 0 1-.22-.22.22.22 0 0 1 .22-.23.22.22 0 0 1 .22.23.22.22 0 0 1-.22.22z" class="CJ"/><path d="M6.18 232.58a1.17 1.17 0 1 1 1.17-1.16 1.16 1.16 0 0 1-1.17 1.16z" class="Cm"/><path d="M21,232.36a1.18,1.18,0,1,1,1.18-1.18A1.18,1.18,0,0,1,21,232.36Z" class="Bt"/><circle cx="4.41" cy="228.91" r="1.26" class="CT"/><path d="M3.9 159.8a.11.11 0 1 1 .11-.11.11.11 0 0 1-.11.11z" class="Bt"/><path d="M12.17 139.2a.73.73 0 1 1 .73-.73.73.73 0 0 1-.73.73z" class="CO"/><path d="M329.25 23.16a.75.75 0 1 1 .74-.74.74.74 0 0 1-.74.74z" class="CP"/><circle cx="389.95" cy="28.17" r=".3" class="Bu"/><circle cx="382.44" cy="55.54" r=".85" class="Bq"/><circle cx="369.73" cy="71.05" r=".89" class="CV"/><path d="M341.63 107.05a.56.56 0 1 1 .56-.56.56.56 0 0 1-.56.56z" class="CO"/><path d="M346.08 90.48a.74.74 0 1 1 .73-.74.74.74 0 0 1-.73.74z" class="CE"/><path d="M336 106.17a.43.43 0 1 1 .42-.42.42.42 0 0 1-.42.42z" class="CW"/><path d="M357.3 99.55a.41.41 0 0 1 0-.82.42.42 0 0 1 .41.41.41.41 0 0 1-.41.41z" class="CO"/><path d="M376.6 161.65a1 1 0 1 1 1-1 1 1 0 0 1-1 1z" class="Bs"/><path d="M349.6 180.92a.59.59 0 1 1 .59-.59.59.59 0 0 1-.59.59z" class="Cp"/><path d="M323.18 195.7a.29.29 0 0 1-.28-.28.28.28 0 0 1 .28-.28.27.27 0 0 1 .28.28.28.28 0 0 1-.28.28z" class="Cf"/><path d="M368.25 213.82a1.1 1.1 0 1 1 1.1-1.1 1.1 1.1 0 0 1-1.1 1.1z" class="Cj"/><circle cx="322.4" cy="207.44" r=".35" class="Bq"/><path d="M320.2 242.87a.85.85 0 1 1 .81-.87.85.85 0 0 1-.81.87z" class="Cl"/><path d="M359.83 257.28a.8.8 0 1 1 .81-.8.8.8 0 0 1-.81.8z" class="CZ"/><path d="M321.05 232.4a.23.23 0 1 1 .23-.23.23.23 0 0 1-.23.23z" class="Cq"/><circle cx="296.31" cy="285.42" r=".27" class="Bq"/><circle cx="295.82" cy="227.76" r=".52" class="CL"/><path d="M274,274a.36.36,0,1,1,0-.71.36.36,0,0,1,0,.71Z" class="Bs"/><circle cx="287.78" cy="291.96" r=".89" class="CT"/><path d="M282.92,271.58a.61.61,0,1,1,0-1.22.61.61,0,1,1,0,1.22Z" class="CR"/><path d="M254.6 305.93a.82.82 0 1 1 .82-.82.82.82 0 0 1-.82.82z" class="Cq"/><path d="M225.3 314.64a.35.35 0 0 1-.34-.35.35.35 0 1 1 .69 0 .35.35 0 0 1-.35.35z" class="CG"/><path d="M239.8 310.82a.38.38 0 1 1 .38-.38.38.38 0 0 1-.38.38z" class="CN"/><path d="M213.22,281a1.2,1.2,0,1,1,0-2.39,1.2,1.2,0,0,1,0,2.39Z" class="Br"/><path d="M207,289.35a.58.58,0,0,1,0-1.16.58.58,0,0,1,0,1.16Z" class="CV"/><circle cx="221.56" cy="329.18" r=".36" class="Cg"/><path d="M153.4 305.37a.36.36 0 1 1 .36-.36.36.36 0 0 1-.36.36z" class="Cj"/><path d="M165.88 301.9a1.35 1.35 0 1 1 1.35-1.35 1.35 1.35 0 0 1-1.35 1.35z" class="CU"/><path d="M125.24 322.32a.7.7 0 1 1 .7-.7.7.7 0 0 1-.7.7z" class="By"/><path d="M124.42,320.26a.62.62,0,1,1,0-1.23.62.62,0,0,1,0,1.23Z" class="Cr"/><circle cx="114.12" cy="280.13" r=".93" class="Cr"/><circle cx="133.25" cy="295.52" r="1.45" class="CF"/><circle cx="113.71" cy="284.41" r=".34" class="Bz"/><path d="M137.72 284.1a.71.71 0 1 1 .71-.71.71.71 0 0 1-.71.71z" class="Bs"/><path d="M92.77 287.17a.69.69 0 1 1 .69-.69.69.69 0 0 1-.69.69z" class="CV"/><path d="M94 284.73a.92.92 0 1 1 .92-.92.92.92 0 0 1-.92.92z" class="CQ"/><path d="M76.8 315.87a.52.52 0 1 1 .52-.52.52.52 0 0 1-.52.52z" class="CO"/><circle cx="100.91" cy="294.75" r=".51" class="Bw"/><path d="M81.37 255.4a.21.21 0 1 1 0-.42.2.2 0 0 1 .2.21.21.21 0 0 1-.2.21z" class="CO"/><path d="M26.66 269.1a.71.71 0 1 1 .71-.71.71.71 0 0 1-.71.71z" class="Ct"/><path d="M30.5,322.1a.16.16,0,0,1,0-.32.16.16,0,1,1,0,.32Z" class="Bz"/><circle cx="23" cy="310.09" r=".6" class="Cb"/><path d="M32.3 260.07a1.15 1.15 0 1 1 1.15-1.15 1.15 1.15 0 0 1-1.15 1.15z" class="CM"/><path d="M387.2 333.47a.74.74 0 1 1 .74-.74.74.74 0 0 1-.74.74z" class="Bx"/><path d="M388.43 321.8a.5.5 0 1 1 .5-.5.5.5 0 0 1-.5.5z" class="Cp"/><path d="M388.08 290.2a.52.52 0 0 1-.52-.52.52.52 0 1 1 1 0 .52.52 0 0 1-.48.52z" class="Bs"/><path d="M400.77,333.54a.79.79,0,0,1,0-1.58.79.79,0,0,1,0,1.58Z" class="Ce"/><circle cx="437.49" cy="297.1" r=".23" class="CE"/><circle cx="422.22" cy="294.31" r=".27" class="CH"/><path d="M440.25 263.85a.22.22 0 0 1-.22-.23.22.22 0 0 1 .44 0 .22.22 0 0 1-.22.23z" class="By"/><circle cx="391.75" cy="12.23" r=".36" class="Bq"/><circle cx="445.21" cy="25.7" r=".41" class="Cd"/><circle cx="418.4" cy="61.33" r="1.12" class="CJ"/><path d="M436.64 62.32A1.32 1.32 0 1 1 438 61a1.31 1.31 0 0 1-1.36 1.32z" class="CO"/><path d="M215 21.2a.92.92 0 1 1 1 .76.92.92 0 0 1-1-.76z" class="Ch"/><path d="M228 39.9a.78.78 0 0 1 .64-.88.76.76 0 0 1 .88.64.77.77 0 0 1-.63.88.79.79 0 0 1-.89-.64z" class="CE"/><path d="M235.4 52.38a1.28 1.28 0 1 1 1.46 1 1.27 1.27 0 0 1-1.46-1z" class="Cl"/><path d="M245.06 45.54a.33.33 0 0 1 .27-.37.32.32 0 0 1 .36.27.32.32 0 0 1-.26.36.32.32 0 0 1-.37-.26z" class="Cq"/><path d="M208.6,92.06a.63.63,0,0,1,1.25-.2.63.63,0,1,1-1.25.2Z" class="CL"/><path d="M221.2 127.53a.17.17 0 0 1 .33 0 .17.17 0 0 1-.14.19.18.18 0 0 1-.19-.19z" class="Bs"/><path d="M245.87 83.55a.73.73 0 0 1 .61-.85.75.75 0 0 1 .86.61.76.76 0 0 1-.62.86.74.74 0 0 1-.85-.62z" class="CN"/><path d="M237.3 136.6a1 1 0 1 1 1.09.79 1 1 0 0 1-1.09-.79z" class="CR"/><path d="M224.57,147.94a1.07,1.07,0,0,1,.89-1.23,1.09,1.09,0,0,1,1.23.89,1.07,1.07,0,1,1-2.12.34Z" class="Bu"/><path d="M281.8 208.25a.35.35 0 1 1 .4.29.35.35 0 0 1-.4-.29z" class="CH"/><path d="M235.83 171.4a.15.15 0 1 1 .3 0 .15.15 0 0 1-.13.17.15.15 0 0 1-.17-.17z" class="Bz"/><path d="M262.54 222.15a.63.63 0 1 1 .72.52.64.64 0 0 1-.72-.52z" class="Cm"/><path d="M246.08 219.64a1.22 1.22 0 1 1 1.4 1 1.22 1.22 0 0 1-1.4-1z" class="CJ"/><path d="M219.07 186.2a.26.26 0 0 1 .21-.29.27.27 0 0 1 .3.21.26.26 0 0 1-.22.29.26.26 0 0 1-.29-.21z" class="Bs"/><path d="M178.67 200.25a.22.22 0 1 1 .25.19.22.22 0 0 1-.25-.19z" class="Bt"/><path d="M215.44 213a.93.93 0 1 1 1.06.77.93.93 0 0 1-1.06-.77z" class="CC"/><path d="M235.66 189.3a.43.43 0 0 1 .35-.49.41.41 0 0 1 .48.35.42.42 0 1 1-.83.14z" class="Bx"/><path d="M206.92,162.23a.35.35,0,0,1,.29-.41.36.36,0,1,1-.29.41Z" class="CR"/><path d="M204.18,169.1a.42.42,0,0,1,.34-.47.41.41,0,1,1-.34.47Z" class="By"/><path d="M204.6 162.7a.79.79 0 1 1 .9.65.79.79 0 0 1-.9-.65z" class="CC"/><path d="M152.18 143a.25.25 0 0 1 .21-.29.25.25 0 0 1 .28.21.25.25 0 0 1-.2.29.26.26 0 0 1-.29-.21z" class="Bt"/><path d="M182.8 146.9a.54.54 0 0 1 .44-.61.53.53 0 0 1 .17 1 .53.53 0 0 1-.61-.39z" class="CC"/><path d="M163.32 120.9a.25.25 0 0 1 .49-.08.25.25 0 0 1-.21.28.25.25 0 0 1-.28-.2z" class="Br"/><path d="M155.45 107.46a1.12 1.12 0 1 1 1.29.93 1.12 1.12 0 0 1-1.29-.93z" class="CF"/><path d="M228.08,119.33a.39.39,0,0,1,.33-.45.4.4,0,0,1,.45.32.4.4,0,0,1-.78.13Z" class="CQ"/><path d="M184.25 88.18a.15.15 0 0 1 .13-.18.16.16 0 0 1 .18.13.17.17 0 0 1-.13.18.16.16 0 0 1-.18-.13z" class="CJ"/><path d="M179.15 59.73a1.07 1.07 0 0 1 .85-1.23 1.09 1.09 0 0 1 1.23.89 1.08 1.08 0 0 1-.89 1.23 1.06 1.06 0 0 1-1.19-.89z" class="Cq"/><path d="M206.66,63.94a1.29,1.29,0,0,1,1.08-1.49,1.31,1.31,0,1,1-1.08,1.49Z" class="Bz"/><path d="M198.1 41.9a1 1 0 1 1 1.14.82 1 1 0 0 1-1.14-.82z" class="CF"/><path d="M198.68 51.4a.65.65 0 1 1 .75.54.65.65 0 0 1-.75-.54z" class="Bt"/><path d="M232.4 6a.41.41 0 0 1 .34-.46.39.39 0 0 1 .46.33.4.4 0 0 1-.33.47.42.42 0 0 1-.47-.34z" class="Bs"/><path d="M241.2 24.35a.24.24 0 0 1 .2-.28.25.25 0 0 1 .08.49.24.24 0 0 1-.28-.21z" class="CI"/><path d="M224.78 23.7a.75.75 0 0 1 .62-.87.77.77 0 0 1 .87.63.76.76 0 0 1-.63.86.74.74 0 0 1-.86-.62z" class="CH"/><path d="M269.67 21.4a1 1 0 0 1 .82-1.13 1 1 0 0 1 1.14.82 1 1 0 0 1-.83 1.14 1 1 0 0 1-1.13-.83z" class="Bv"/><path d="M236.48 62.26a.58.58 0 1 1 .67.48.58.58 0 0 1-.67-.48z" class="Bq"/><path d="M288.1 41.26a.93.93 0 1 1 1.07.78.94.94 0 0 1-1.07-.78z" class="CN"/><path d="M273.44 40.68a1.19 1.19 0 1 1 1.36 1 1.17 1.17 0 0 1-1.36-1z" class="Bv"/><path d="M265.84 81.35a.35.35 0 1 1 .41.29.37.37 0 0 1-.41-.29z" class="CE"/><path d="M284.23 78.55a.74.74 0 1 1 .85.62.74.74 0 0 1-.85-.62z" class="Bp"/><path d="M338.57,65a.69.69,0,0,1,.57-.78.68.68,0,1,1-.57.78Z" class="Br"/><path d="M340.88,86.66a.69.69,0,1,1,1.37-.22.69.69,0,0,1-1.37.22Z" class="CG"/><path d="M287.7 78.94a.52.52 0 1 1 .6.44.53.53 0 0 1-.6-.44z" class="Bx"/><path d="M296.52 74.13a1.21 1.21 0 1 1 1.38 1 1.21 1.21 0 0 1-1.38-1z" class="Br"/><path d="M304.1 95.65a.663.663 0 1 1 .76.55.67.67 0 0 1-.76-.55z" class="Cl"/><path d="M333.38 110a.21.21 0 1 1 .24.18.21.21 0 0 1-.24-.18zm-20.44 9.75a.5.5 0 1 1 .57.41.5.5 0 0 1-.57-.41z" class="Bp"/><path d="M334.1 151.87a.28.28 0 1 1 .32.23.28.28 0 0 1-.32-.23z" class="Cs"/><path d="M339.24 154.48a.41.41 0 0 1 .34-.47.42.42 0 0 1 .47.34.43.43 0 0 1-.34.48.41.41 0 0 1-.47-.35z" class="Bp"/><path d="M309.12 171.84a.78.78 0 1 1 .9.65.78.78 0 0 1-.9-.65z" class="By"/><path d="M305.28 167.9a1.42 1.42 0 1 1 1.63 1.18 1.41 1.41 0 0 1-1.63-1.18z" class="Bz"/><path d="M289.3 195.85a.74.74 0 0 1 1.47-.24.74.74 0 1 1-1.47.24z" class="Bx"/><path d="M319.83,189.2a.89.89,0,1,1,1.76-.28.89.89,0,0,1-1.76.28Z" class="Ca"/><path d="M260.37 206.92a1 1 0 1 1 1.16.83 1 1 0 0 1-1.16-.83z" class="CX"/><path d="M276.77 238.3a.27.27 0 1 1 .31.22.27.27 0 0 1-.31-.22z" class="CA"/><path d="M343.32,253.1a.77.77,0,0,1,1.52-.25.77.77,0,1,1-1.52.25Z" class="CK"/><path d="M283.4 273.3a.68.68 0 0 1 .56-.77.67.67 0 1 1-.56.77z" class="Cr"/><path d="M259.23 266.8a1 1 0 1 1 1.18.86 1 1 0 0 1-1.18-.86z" class="CB"/><path d="M272 270.86a.38.38 0 0 1 .76-.12.39.39 0 0 1-.32.45.39.39 0 0 1-.44-.33z" class="Co"/><path d="M242.07 298.5a.79.79 0 1 1 .91.66.8.8 0 0 1-.91-.66z" class="Bs"/><path d="M214.16 266.7a1.31 1.31 0 1 1 1.5 1.09 1.31 1.31 0 0 1-1.5-1.09z" class="Bp"/><path d="M287.64 317.6a.37.37 0 1 1 .43.31.38.38 0 0 1-.43-.31z" class="Ci"/><path d="M201.42 319.63a.82.82 0 1 1 .93.68.81.81 0 0 1-.93-.68z" class="CI"/><path d="M207.77 303.36a.71.71 0 1 1 .81.59.7.7 0 0 1-.81-.59z" class="CP"/><path d="M167.14 306a.11.11 0 0 1 .21 0 .09.09 0 0 1-.09.11.1.1 0 0 1-.12-.11z" class="Br"/><path d="M108.2 265.62a.61.61 0 0 1 .51-.71.62.62 0 0 1 .72.51.64.64 0 0 1-.52.72.62.62 0 0 1-.71-.52z" class="CZ"/><path d="M112.92 274.33a1 1 0 1 1 1.18.85 1 1 0 0 1-1.18-.85z" class="CM"/><path d="M101.6,263.86a.53.53,0,0,1,.44-.61.54.54,0,1,1-.44.61Z" class="CJ"/><path d="M57.8 301.67a.53.53 0 0 1 .43-.61.54.54 0 0 1 .61.44.53.53 0 0 1-.44.61.52.52 0 0 1-.6-.44z" class="CU"/><path d="M94.88 252.4a.6.6 0 0 1 .5-.69.59.59 0 0 1 .69.49.6.6 0 0 1-.5.69.59.59 0 0 1-.69-.49z" class="Br"/><path d="M72.75 271.88a.38.38 0 0 1 .31-.43.37.37 0 0 1 .42.31.36.36 0 0 1-.31.43.37.37 0 0 1-.42-.31z" class="CX"/><path d="M25.9 213.76a1.11 1.11 0 0 1 2.2-.35 1.11 1.11 0 0 1-2.2.35z" class="Bw"/><path d="M32.5 242.8a.31.31 0 0 1 .27-.37.32.32 0 0 1 .1.64.32.32 0 0 1-.37-.27z" class="Cd"/><path d="M28.42 203.88a.45.45 0 1 1 .51.37.45.45 0 0 1-.51-.37z" class="Cq"/><path d="M22.5 193.3a.25.25 0 0 1 .49-.08.26.26 0 0 1-.21.29.25.25 0 0 1-.28-.21z" class="CA"/><path d="M29.77 160.65a.52.52 0 0 1 .43-.59.5.5 0 0 1 .59.43.51.51 0 0 1-.42.59.53.53 0 0 1-.6-.43z" class="CI"/><path d="M23.33 165.3a.43.43 0 0 1 .84-.13.42.42 0 0 1-.35.48.43.43 0 0 1-.49-.35z" class="Bt"/><path d="M29.16 127.32a.92.92 0 1 1 1.05.76.92.92 0 0 1-1.05-.76z" class="CM"/><path d="M42 95.9a.93.93 0 0 1 .77-1.06.92.92 0 1 1-.77 1.06z" class="CF"/><path d="M2.27 68a.53.53 0 0 1 .45-.62.54.54 0 1 1 .17 1.07.55.55 0 0 1-.62-.45z" class="CK"/><path d="M51.55,72.27a.2.2,0,0,1,.17-.23.2.2,0,1,1-.17.23Z" class="CS"/><path d="M18 33.87a.3.3 0 0 1 .25-.34.29.29 0 0 1 .34.24.3.3 0 0 1-.25.34.29.29 0 0 1-.34-.24z" class="Cb"/><path d="M26.86 47.57a.3.3 0 1 1 .34.25.29.29 0 0 1-.34-.25z" class="CT"/><path d="M20.8 48.56a.13.13 0 0 1 .11-.15.14.14 0 0 1 .16.11.13.13 0 0 1-.11.15.14.14 0 0 1-.16-.11z" class="Cm"/><path d="M26.66 15.7a.33.33 0 1 1 .66-.11.33.33 0 1 1-.66.11z" class="Bt"/><path d="M417.84 4.3a.47.47 0 1 1 .53.38.46.46 0 0 1-.53-.38z" class="CF"/><path d="M376.4 8.53a.53.53 0 0 1 .44-.61.54.54 0 0 1 .61.44.53.53 0 1 1-1 .17z" class="Cb"/><path d="M375.54 39.42a.33.33 0 0 1 .65-.1.32.32 0 0 1-.27.37.33.33 0 0 1-.38-.27z" class="CD"/><path d="M396.86 42.7a1.07 1.07 0 1 1 1.23.89 1.08 1.08 0 0 1-1.23-.89z" class="Cf"/><path d="M405.35 82.4a.44.44 0 0 1 .36-.51.45.45 0 0 1 .51.37.44.44 0 0 1-.37.5.43.43 0 0 1-.5-.36z" class="CA"/><path d="M394.44 75.44a.62.62 0 0 1 .51-.7.612.612 0 1 1-.51.7z" class="Ch"/><path d="M402.78 73.68a.18.18 0 0 1 .16-.22.19.19 0 0 1 .22.16.2.2 0 0 1-.16.22.19.19 0 0 1-.22-.16z" class="Ca"/><path d="M388.4 86.37a.78.78 0 0 1 .66-.9.79.79 0 0 1 .91.65.8.8 0 0 1-.66.91.79.79 0 0 1-.91-.66z" class="CU"/><path d="M356.93 105.16a.33.33 0 0 1 .28-.38.334.334 0 0 1 .1.66.33.33 0 0 1-.38-.28z" class="CI"/><path d="M356.66,135.32a.52.52,0,0,1,1-.16.52.52,0,0,1-1,.16Z" class="Cn"/><path d="M327.77 167.54a.91.91 0 0 1 1.79-.29.92.92 0 0 1-.75 1.05.9.9 0 0 1-1.04-.76z" class="CC"/><path d="M325.36,233.4a.79.79,0,0,1,1.57-.25.79.79,0,0,1-1.57.25Z" class="Ce"/><path d="M310.6 258.05a.73.73 0 0 1 1.45-.23.72.72 0 0 1-.6.84.74.74 0 0 1-.85-.61z" class="CS"/><path d="M297.5,263.66a.22.22,0,0,1,.43-.07.22.22,0,1,1-.43.07Z" class="Cn"/><path d="M284.92 258.77a.79.79 0 1 1 .91.66.79.79 0 0 1-.91-.66z" class="Bq"/><path d="M244.26 337.38a1 1 0 1 1 1.11.8 1 1 0 0 1-1.11-.8z" class="Bt"/><path d="M226.9 314.5a.68.68 0 0 1 .56-.78.67.67 0 1 1-.56.78z" class="Bs"/><path d="M196.9 340.58a.1.1 0 1 1 .2 0 .1.1 0 0 1-.08.11.1.1 0 0 1-.12-.11z" class="Bu"/><path d="M153.2 332.92a.67.67 0 1 1 .76.56.68.68 0 0 1-.76-.56z" class="CR"/><path d="M121 319.15a.17.17 0 0 1 .13-.18.16.16 0 0 1 .18.13.15.15 0 0 1-.31.05z" class="Cf"/><path d="M23.17 40.14a.65.65 0 1 1 .75.54.66.66 0 0 1-.75-.54z" class="Bp"/><path d="M1.43,25.4a.24.24,0,0,1,.48-.08.24.24,0,1,1-.48.08Z" class="CF"/><path d="M62.07,15.56a.5.5,0,0,1,.42-.58.51.51,0,1,1-.42.58Z" class="CB"/><path d="M4.35 40.34a.56.56 0 1 1 .64.47.56.56 0 0 1-.64-.47z" class="Cb"/><path d="M23.86 105.05a.94.94 0 1 1 1.07.78.94.94 0 0 1-1.07-.78z" class="Bt"/><path d="M60.74 139.6a.77.77 0 0 1 .63-.87.75.75 0 0 1 .24 1.49.76.76 0 0 1-.87-.62z" class="Cc"/><path d="M17.9 106.17a.69.69 0 1 1 1.36-.22.69.69 0 1 1-1.36.22z" class="CP"/><path d="M27.53 105.18a.79.79 0 1 1 .9.66.8.8 0 0 1-.9-.66z" class="CV"/><path d="M.4 87.18a.3.3 0 0 1 .25-.35.31.31 0 0 1 .1.61.31.31 0 0 1-.35-.26z" class="CO"/><path d="M32.7 88.78a.74.74 0 1 1 .85.61.74.74 0 0 1-.85-.61z" class="CP"/><path d="M29.17,96.62a.27.27,0,0,1,.22-.31.26.26,0,0,1,.31.22.27.27,0,1,1-.53.09Z" class="CF"/><path d="M32 73.28a.1.1 0 0 1 .07-.1.1.1 0 0 1 .1.08.07.07 0 0 1-.07.09.08.08 0 0 1-.1-.07z" class="CV"/><path d="M34.7 105.5a.25.25 0 0 1 .21-.3.26.26 0 0 1 .31.22.27.27 0 0 1-.22.3.26.26 0 0 1-.3-.22z" class="Bs"/><path d="M79.77 103.27a.13.13 0 0 1 .11-.15.13.13 0 0 1 0 .25.14.14 0 0 1-.11-.1z" class="CA"/><path d="M83.25 99a.67.67 0 1 1 .77.56.67.67 0 0 1-.77-.56z" class="CR"/><path d="M99.44,73.72a.24.24,0,0,1,.2-.28.23.23,0,0,1,.28.2.24.24,0,1,1-.48.08Z" class="Bw"/><path d="M79.78 93.36a.8.8 0 1 1 .92.66.8.8 0 0 1-.92-.66z" class="CC"/><path d="M100.5 109.55a.35.35 0 0 1 .3-.41.354.354 0 0 1 .11.7.37.37 0 0 1-.41-.29z" class="Bp"/><path d="M92.62,136.92a.65.65,0,0,1,1.29-.21.65.65,0,0,1-1.29.21Z" class="Ck"/><path d="M80.46 109.37a.4.4 0 0 1 .32-.45.39.39 0 0 1 .45.33.38.38 0 0 1-.32.44.39.39 0 0 1-.45-.32z" class="CE"/><path d="M144.68 145.44a.35.35 0 1 1 .4.29.35.35 0 0 1-.4-.29z" class="CN"/><path d="M128.28,165.34a.76.76,0,1,1,1.51-.24.76.76,0,0,1-1.51.24Z" class="Bz"/><path d="M91.16 167.8a.67.67 0 1 1 .77.55.67.67 0 0 1-.77-.55z" class="Bt"/><path d="M145.1 217.57a1.14 1.14 0 0 1 1-1.33 1.16 1.16 0 1 1-1 1.33z" class="Cc"/><path d="M128.92 193.64a.16.16 0 0 1 .14-.18.16.16 0 0 1 .19.13.17.17 0 0 1-.14.19.17.17 0 0 1-.19-.14z" class="Bz"/><path d="M179.38 215.22a.36.36 0 0 1 .3-.42.37.37 0 0 1 .43.3.39.39 0 0 1-.31.43.37.37 0 0 1-.42-.31z" class="Bt"/><path d="M121.5 262.37a.27.27 0 1 1 .54-.08.26.26 0 0 1-.22.31.27.27 0 0 1-.32-.23z" class="Bq"/><path d="M123 267.66a.48.48 0 0 1 .4-.56.5.5 0 0 1 .56.41.48.48 0 0 1-.41.55.47.47 0 0 1-.55-.4z" class="CY"/><path d="M85.4,286.08a.53.53,0,0,1,1-.17.53.53,0,1,1-1,.17Z" class="CN"/><path d="M118.8 299.84a.37.37 0 0 1 .31-.44.39.39 0 0 1 .44.31.39.39 0 0 1-.32.44.38.38 0 0 1-.43-.31z" class="CG"/><path d="M111.4 304.38a.73.73 0 1 1 .84.61.73.73 0 0 1-.84-.61z" class="CH"/><path d="M116.78 293.72a1.28 1.28 0 1 1 1.47 1.06 1.28 1.28 0 0 1-1.47-1.06z" class="Bp"/><path d="M103.36 291.77a.29.29 0 0 1 .24-.33.28.28 0 0 1 .32.24.27.27 0 0 1-.23.32.28.28 0 0 1-.33-.23z" class="CP"/><path d="M40.6 306.74a.44.44 0 0 1 .37-.51.45.45 0 1 1-.37.51z" class="CU"/><path d="M29.28 325.7a.77.77 0 1 1 .88.64.78.78 0 0 1-.88-.64z" class="CC"/><path d="M32.37 343.1a.52.52 0 0 1 1-.17.52.52 0 1 1-1 .17z" class="Cf"/><path d="M305.46 14.8a.67.67 0 1 1 .77.55.67.67 0 0 1-.77-.55z" class="Bq"/><path d="M350.28 5.5a.19.19 0 0 1 .17-.23.21.21 0 0 1 .24.17.22.22 0 0 1-.18.24.2.2 0 0 1-.23-.18z" class="CT"/><path d="M345,19a.21.21,0,0,1,.16-.22.19.19,0,0,1,.21.16.18.18,0,0,1-.15.21A.19.19,0,0,1,345,19Z" class="Bz"/><path d="M397.77 10.24a.57.57 0 0 1 .48-.67.59.59 0 0 1 .67.48.6.6 0 0 1-.48.68.59.59 0 0 1-.67-.49z" class="Bv"/><path d="M355,20.54a1.32,1.32,0,0,1,1.08-1.5,1.3,1.3,0,1,1-1.08,1.5Z" class="CI"/><path d="M370.68 34.75a.79.79 0 1 1 .9.65.78.78 0 0 1-.9-.65z" class="Cn"/><path d="M412.87,37.85a.75.75,0,0,1,1.48-.24.75.75,0,1,1-1.48.24Z" class="Ck"/><path d="M404.44,50.6a.43.43,0,0,1,.36-.49.43.43,0,1,1-.36.49Z" class="CY"/><path d="M431,108.92a.91.91,0,0,1,.75-1,.88.88,0,0,1,1,.74.9.9,0,0,1-1.77.29Z" class="Ck"/><path d="M420.54,120.26a.85.85,0,0,1,.7-1,.84.84,0,1,1-.7,1Z" class="CM"/><path d="M420.46,124.5a.84.84,0,0,1,1.65-.27.84.84,0,1,1-1.65.27Z" class="CD"/><path d="M445.88 98.28a.47.47 0 1 1 .53.39.46.46 0 0 1-.53-.39z" class="CA"/><path d="M387.47 152.6a.32.32 0 0 1 .27-.37.31.31 0 0 1 .37.27.33.33 0 0 1-.27.38.33.33 0 0 1-.37-.28z" class="CL"/><path d="M363.72 135.12a.87.87 0 1 1 1 .72.86.86 0 0 1-1-.72z" class="Ci"/><path d="M406.65 158.52a.79.79 0 1 1 .9.65.78.78 0 0 1-.9-.65z" class="By"/><path d="M415.26 183.44a1.17 1.17 0 1 1 1.34 1 1.17 1.17 0 0 1-1.34-1z" class="Ca"/><path d="M428.78 201.93a1 1 0 1 1 1.1.8 1 1 0 0 1-1.1-.8z" class="Ci"/><path d="M442.5 205.43a.44.44 0 0 1 .36-.49.43.43 0 0 1 .49.35.42.42 0 0 1-.36.49.43.43 0 0 1-.49-.35z" class="Ct"/><path d="M408.26 222.7a.87.87 0 0 1 .72-1 .88.88 0 0 1 1 .72.87.87 0 0 1-.73 1 .86.86 0 0 1-.99-.72z" class="CE"/><path d="M390.27 232.57a.52.52 0 0 1 .43-.59.52.52 0 1 1 .17 1 .52.52 0 0 1-.6-.41z" class="CB"/><path d="M419.5 266.28a.56.56 0 0 1 .45-.62.55.55 0 0 1 .62.45.54.54 0 1 1-1.07.17z" class="Bq"/><path d="M408.18 291.73a.18.18 0 0 1 .16-.22.19.19 0 0 1 .22.16.21.21 0 0 1-.16.22.2.2 0 0 1-.22-.16z" class="Cg"/><path d="M358.38 312.93a.33.33 0 0 1 .27-.37.33.33 0 0 1 .38.27.34.34 0 0 1-.27.37.33.33 0 0 1-.38-.27z" class="Cl"/><path d="M355.72 318.16a.84.84 0 1 1 1 .7.85.85 0 0 1-1-.7zm-12.4-4.5a.16.16 0 0 1 .13-.18.16.16 0 0 1 .18.13.16.16 0 0 1-.31 0z" class="Bp"/><path d="M304.83,292.83a.35.35,0,1,1,.7-.11.35.35,0,0,1-.7.11Z" class="Bq"/><path d="M326.4 314.23a.79.79 0 1 1 .9.65.78.78 0 0 1-.9-.65z" class="CH"/><path d="M320.5 341.47a.45.45 0 1 1 .52.37.45.45 0 0 1-.52-.37z" class="Bp"/><path d="M295.32 300.17a.46.46 0 0 1 .38-.53.47.47 0 0 1 .15.92.46.46 0 0 1-.53-.39z" class="CY"/><path d="M282.37 341.72a.24.24 0 0 1 .21-.29.26.26 0 0 1 .29.21.26.26 0 0 1-.21.29.25.25 0 0 1-.29-.21z" class="CM"/><path d="M268.52 333.23a.53.53 0 0 1 1.05-.17.54.54 0 0 1-.44.61.53.53 0 0 1-.61-.44z" class="By"/><path d="M240.37 232.5a.36.36 0 0 1 .31-.42.37.37 0 1 1 .12.73.36.36 0 0 1-.43-.31z" class="Bq"/><path d="M211.33 229.38a.46.46 0 1 1 .53.38.46.46 0 0 1-.53-.38z" class="CF"/><path d="M231.7 220.33a.88.88 0 0 1 .73-1 .9.9 0 0 1 1 .74.91.91 0 0 1-.74 1 .89.89 0 0 1-.99-.74z" class="CB"/><path d="M229.88 257.17a.45.45 0 1 1 .52.37.45.45 0 0 1-.52-.37z" class="Bx"/><path d="M213.25 211.16a.66.66 0 0 1 .55-.75.65.65 0 0 1 .21 1.29.66.66 0 0 1-.76-.54z" class="CZ"/><path d="M178.2 267.72a.28.28 0 0 1 .23-.32.27.27 0 0 1 .32.23.29.29 0 0 1-.23.32.28.28 0 0 1-.32-.23z" class="Bt"/><path d="M199.07 232.6a.63.63 0 1 1 .72.52.63.63 0 0 1-.72-.52z" class="Cs"/><path d="M127.9 228.94a.5.5 0 1 1 .58.41.5.5 0 0 1-.58-.41z" class="CN"/><path d="M147.84 205.12a.2.2 0 1 1 .23.16.2.2 0 0 1-.23-.16z" class="Cc"/><path d="M163.4 191.2a.18.18 0 0 1 .15-.2.17.17 0 0 1 .19.15.16.16 0 0 1-.14.19.17.17 0 0 1-.2-.14z" class="Br"/><path d="M136.68 201.47a.56.56 0 1 1 .64.46.57.57 0 0 1-.64-.46z" class="Cc"/><path d="M130.64 221.25a.83.83 0 0 1 .68-.95.84.84 0 0 1 1 .69.83.83 0 0 1-.69.95.81.81 0 0 1-.99-.69z" class="Bv"/><path d="M119.7 173a.2.2 0 0 1 .17-.24.21.21 0 0 1 .23.17.2.2 0 0 1-.17.23.19.19 0 0 1-.23-.16z" class="CP"/><path d="M153.34 182.15a.22.22 0 1 1 .25.18.22.22 0 0 1-.25-.18z" class="CQ"/><path d="M71.86,203a.78.78,0,0,1,.65-.9.77.77,0,0,1,.89.65.78.78,0,1,1-1.54.25Z" class="CD"/><path d="M103.92 126.74a.33.33 0 0 1 .27-.37.32.32 0 1 1 .1.63.32.32 0 0 1-.37-.26z" class="Bv"/><path d="M111.54,136.07a1.08,1.08,0,0,1,.89-1.23,1.07,1.07,0,1,1-.89,1.23Z" class="Bs"/><path d="M127.1 112.3a1 1 0 1 1 2-.32 1 1 0 0 1-2 .32z" class="Cm"/><path d="M50.62 126.32a1 1 0 1 1 1.16.85 1 1 0 0 1-1.16-.85z" class="Ce"/><path d="M37.78 95.44a.91.91 0 1 1 1 .76.91.91 0 0 1-1-.76z" class="CQ"/><path d="M68.77 75.82a.72.72 0 0 1 .6-.82.71.71 0 0 1 .22 1.41.72.72 0 0 1-.82-.59z" class="CA"/><path d="M87.5 63.67a.46.46 0 0 1 .38-.51.45.45 0 0 1 .51.37.44.44 0 0 1-.39.47.45.45 0 0 1-.5-.33z" class="Bq"/><path d="M45.72 40.6a.25.25 0 0 1 .21-.28.24.24 0 0 1 .27.2.23.23 0 0 1-.2.28.25.25 0 0 1-.28-.2z" class="CZ"/><path d="M91.7 30.65a.47.47 0 0 1 .39-.55.48.48 0 0 1 .55.4.47.47 0 0 1-.4.54.46.46 0 0 1-.54-.39z" class="Co"/><path d="M67.12,8.68a.38.38,0,0,1,.32-.43.37.37,0,0,1,.43.31.38.38,0,0,1-.75.12Z" class="Cb"/><path d="M447.6 12.27a.73.73 0 0 0 .49.58v-1.4a.74.74 0 0 0-.49.81z" class="Bs"/><path d="M444.14,61.52a.62.62,0,0,1,.52-.72.63.63,0,1,1-.52.72Z" class="Cf"/><path d="M423.17 271.15a.88.88 0 0 1 .74-1 .89.89 0 0 1 1 .73.88.88 0 0 1-.74 1 .89.89 0 0 1-1-.73z" class="Ck"/><path d="M433.73 263.3a.75.75 0 0 1 .62-.87.77.77 0 0 1 .87.63.76.76 0 0 1-.63.86.74.74 0 0 1-.86-.62z" class="CE"/><path d="M440.38 316.78a1.3 1.3 0 1 1 1.49 1.07 1.29 1.29 0 0 1-1.49-1.07z" class="CJ"/><path d="M385.15 257.8a.12.12 0 0 1 .1-.14.12.12 0 0 1 .13.1.11.11 0 0 1-.09.13.12.12 0 0 1-.14-.09z" class="Ce"/><path d="M405.54 289.6a.82.82 0 0 1 .69-.94.81.81 0 0 1 .94.68.83.83 0 1 1-1.63.26z" class="Bq"/><path d="M365.52,267.3a.82.82,0,0,1,1.62-.26.82.82,0,0,1-1.62.26Z" class="Bt"/><path d="M353.17 311.87a.3.3 0 0 1 .25-.34.29.29 0 0 1 .34.24.3.3 0 0 1-.24.35.31.31 0 0 1-.35-.25z" class="CC"/><path d="M285 278.38a.72.72 0 0 1 .61-.84.73.73 0 0 1 .23 1.45.72.72 0 0 1-.84-.61z" class="Bt"/><path d="M228.15 324.58a.36.36 0 1 1 .42.3.37.37 0 0 1-.42-.3z" class="CF"/><path d="M219.57 319.82a1 1 0 0 1 .8-1.12 1 1 0 0 1 1.12.81 1 1 0 0 1-.81 1.11 1 1 0 0 1-1.11-.8z" class="CO"/><path d="M196.26 296.2a.59.59 0 1 1 .68.49.59.59 0 0 1-.68-.49z" class="Bu"/><path d="M177.48 272.46a.29.29 0 0 1 .23-.32.28.28 0 0 1 .32.23.27.27 0 1 1-.55.09z" class="CV"/><path d="M165.4 273.6a.35.35 0 1 1 .7-.11.35.35 0 0 1-.7.11z" class="Bs"/><path d="M130.43 277a.85.85 0 1 1 1 .7.84.84 0 0 1-1-.7z" class="Cm"/><path d="M159.8 253.3a.24.24 0 0 1 .2-.27.23.23 0 0 1 .26.19.23.23 0 0 1-.19.27.24.24 0 0 1-.27-.19z" class="CU"/><path d="M84.36 260.2a.27.27 0 0 1 .22-.31.27.27 0 0 1 .32.22.29.29 0 0 1-.23.32.27.27 0 0 1-.31-.23z" class="CW"/><path d="M127.66,273.86a1,1,0,0,1,1.9-.3,1,1,0,0,1-1.9.3Z" class="Bs"/><path d="M115.67 281.15a.87.87 0 1 1 1 .72.88.88 0 0 1-1-.72z" class="Cg"/><path d="M141 250.6a.52.52 0 1 1 1-.17.52.52 0 0 1-1 .17z" class="Cj"/><path d="M77.63 233.76a.68.68 0 0 1 .57-.78.68.68 0 1 1-.57.78zm14.8 2.5a.35.35 0 0 1 .29-.4.36.36 0 0 1 .41.29.35.35 0 0 1-.3.41.35.35 0 0 1-.4-.3z" class="Bs"/><path d="M104.9 241a.76.76 0 0 1 1.5-.24.76.76 0 0 1-1.5.24z" class="Cj"/><path d="M83.22 218.2a.81.81 0 1 1 1.6-.25.81.81 0 0 1-1.6.25z" class="CJ"/><path d="M44.53 194.68a.35.35 0 1 1 .4.29.35.35 0 0 1-.4-.29z" class="CB"/><path d="M50.6 208.38a.38.38 0 1 1 .75-.12.38.38 0 0 1-.75.12z" class="CY"/><path d="M36.1 154.2a.56.56 0 1 1 .64.46.56.56 0 0 1-.64-.46z" class="By"/><path d="M29.2 193.35a.37.37 0 0 1 .3-.42.36.36 0 0 1 .42.3.37.37 0 0 1-.3.42.38.38 0 0 1-.42-.3z" class="Bv"/><path d="M44,142.78a1.22,1.22,0,0,1,2.42-.38,1.22,1.22,0,1,1-2.42.38Z" class="CA"/><path d="M42.27 122.2a.35.35 0 1 1 .71-.12.36.36 0 1 1-.71.12z" class="Ca"/><path d="M47.67,134a1.35,1.35,0,1,1,1.55,1.12A1.35,1.35,0,0,1,47.67,134Z" class="CL"/><path d="M19.6 108.74a.36.36 0 1 1 .41.3.35.35 0 0 1-.41-.3z" class="Bp"/><path d="M21.08,97.1a.7.7,0,0,1,1.38-.22.7.7,0,1,1-1.38.22Z" class="Bw"/><path d="M60.05 79.58a.92.92 0 0 1 .77-1.07.93.93 0 0 1 .29 1.84.92.92 0 0 1-1.06-.77z" class="CN"/><path d="M47.38 101a1.45 1.45 0 1 1 1.66 1.2 1.44 1.44 0 0 1-1.66-1.2z" class="Cb"/><path d="M56.34 79.76a.35.35 0 0 1 .28-.39.34.34 0 0 1 .39.28.33.33 0 0 1-.28.38.34.34 0 0 1-.39-.27z" class="Cg"/><path d="M60.8 103.36a.71.71 0 1 1 .81.59.7.7 0 0 1-.81-.59z" class="Bu"/><path d="M53.24 60.3a.91.91 0 1 1 1 .76.92.92 0 0 1-1-.76z" class="Cc"/><path d="M77.4 54.57a.86.86 0 0 1 .71-1 .85.85 0 0 1 .27 1.68.86.86 0 0 1-.98-.68z" class="CU"/><path d="M70 44.72a.6.6 0 1 1 .68.49.6.6 0 0 1-.68-.49z" class="Cd"/><path d="M41.53 18.28a.12.12 0 0 1 .1-.15.13.13 0 0 1 .15.11.12.12 0 0 1-.1.15.13.13 0 0 1-.15-.11zM6.27 3.53a.16.16 0 0 1 .13-.18.15.15 0 0 1 .18.13.16.16 0 0 1-.13.18.17.17 0 0 1-.18-.13z" class="Bs"/><path d="M11.47 326a1 1 0 1 1 1.17.85 1 1 0 0 1-1.17-.85z" class="CM"/><path d="M35.7 308a.66.66 0 0 1 .55-.77.67.67 0 1 1 .22 1.33.66.66 0 0 1-.77-.56z" class="CQ"/><path d="M71,342.12a.27.27,0,0,1,.21-.3.26.26,0,0,1,.29.22.25.25,0,0,1-.5.08Z" class="Br"/><path d="M94.9 350.92a.52.52 0 0 0-.43.43h1a.52.52 0 0 0-.57-.43z" class="Ci"/><path d="M424.12,129.24a.92.92,0,0,1,1.81-.29.92.92,0,1,1-1.81.29Z" class="CX"/><path d="M437.1 183.83a1.11 1.11 0 1 1 1.27.92 1.11 1.11 0 0 1-1.27-.92z" class="CG"/><path d="M424 201a.28.28 0 1 1 .33.24.29.29 0 0 1-.33-.24z" class="Bp"/><path d="M430.28 230.9a.93.93 0 0 1 .78-1.08.94.94 0 0 1 .3 1.86.93.93 0 0 1-1.08-.78z" class="CM"/><path d="M433.93 265.78a.33.33 0 0 1 .27-.37.31.31 0 0 1 .36.26.32.32 0 0 1-.26.37.32.32 0 0 1-.37-.26z" class="CX"/><path d="M432.55 263.7a1.21 1.21 0 1 1 2.39-.39 1.21 1.21 0 0 1-2.39.39z" class="CH"/><path d="M422.3 273.56a1.35 1.35 0 1 1 1.55 1.12 1.35 1.35 0 0 1-1.55-1.12z" class="CT"/><path d="M420 280.35a.79.79 0 1 1 .91.66.79.79 0 0 1-.91-.66z" class="Bx"/><path d="M376.25 265.8a.73.73 0 1 1 1.45-.23.72.72 0 0 1-.61.84.74.74 0 0 1-.84-.61z" class="CJ"/><path d="M371.4 346.1a.88.88 0 0 1 .73-1 .87.87 0 0 1 1 .73.88.88 0 1 1-1.73.28z" class="CS"/><path d="M374.58 351.06a1 1 0 0 0-.53.29h1.4a1 1 0 0 0-.87-.29z" class="Bt"/><path d="M324.14 345.35a1.12 1.12 0 1 1 1.28.93 1.12 1.12 0 0 1-1.28-.93z" class="CH"/><path class="AV Cf" d="M167 105.35a.64.64 0 0 1-.18-.88.63.63 0 0 1 .88-.17.62.62 0 0 1 .17.87.63.63 0 0 1-.87.18z"/><path class="AW CW" d="M197 80.4a.75.75 0 0 1-.2-1 .73.73 0 0 1 1.22.81.74.74 0 0 1-1.02.19z"/><path class="AX CK" d="M165.12 109.3a.23.23 0 0 1-.07-.32.24.24 0 0 1 .33-.07.24.24 0 0 1 .06.32.23.23 0 0 1-.32.07z"/><path class="AY CR" d="M183.5 84.9a.27.27 0 1 1 .37-.07.26.26 0 0 1-.37.07z"/><path class="AZ Bq" d="M186,72.17a.75.75,0,0,1-.21-1,.74.74,0,1,1,.21,1Z"/><path class="Aa Ch" d="M185.8 105.8a.12.12 0 1 1 .16 0 .11.11 0 0 1-.16 0z"/><path class="AX CK" d="M225.4 88.5a.92.92 0 0 1-.26-1.27.91.91 0 0 1 1.52 1 .92.92 0 0 1-1.26.27z"/><path class="Ab CS" d="M219.23 114.4a1 1 0 1 1 1.32-.27 1 1 0 0 1-1.32.27z"/><path class="Ac CX" d="M259.52 92.3a.18.18 0 1 1 .26-.25.19.19 0 0 1 0 .25.18.18 0 0 1-.26 0z"/><path class="AX CK" d="M302.08 130.2a.35.35 0 1 1 .48-.1.34.34 0 0 1-.48.1z"/><path class="Aa Ch" d="M243.85 139.05a.15.15 0 0 1 0-.21.14.14 0 0 1 .2 0 .15.15 0 0 1 0 .21.14.14 0 0 1-.2 0z"/><path class="Ad CA" d="M236.48 136.42a.1.1 0 1 1 .11-.16.1.1 0 0 1 0 .14.11.11 0 0 1-.11.02z"/><path class="Ae Bp" d="M286.28 164.18a1.22 1.22 0 1 1 1.69-.34 1.22 1.22 0 0 1-1.69.34z"/><circle class="Af Bp" cx="243.52" cy="161.18" r=".25"/><path class="Ag Ci" d="M226.36 200.65a.22.22 0 0 1-.06-.31.22.22 0 0 1 .36.24.21.21 0 0 1-.3.07z"/><path class="AW CW" d="M223.07 203.7a.22.22 0 1 1 .3-.06.22.22 0 0 1-.3.06z"/><path class="Ah CT" d="M179.65 206.08a.77.77 0 0 1-.22-1.07.77.77 0 0 1 1.28.85.77.77 0 0 1-1.06.22z"/><path class="Ai CY" d="M166.26 181.33a.24.24 0 0 1-.07-.34.25.25 0 0 1 .35-.07.24.24 0 0 1 .07.34.25.25 0 0 1-.35.07z"/><path class="Aj Cl" d="M189.9 161.46a.53.53 0 0 1-.14-.73.52.52 0 0 1 .72-.15.53.53 0 0 1-.58.88z"/><path class="Ak Bu" d="M201.13 138.2a.66.66 0 0 1-.19-.92.68.68 0 0 1 .93-.19.67.67 0 0 1-.74 1.11z"/><path class="Al CP" d="M157.57 158.2a.25.25 0 0 1-.07-.34.24.24 0 0 1 .34-.07.23.23 0 0 1 .07.34.25.25 0 0 1-.34.07z"/><path class="Am CL" d="M142.35 154.88a1.12 1.12 0 1 1 1.57-.31 1.12 1.12 0 0 1-1.57.31z"/><path class="An Cd" d="M200.28,109.48a.39.39,0,0,1-.11-.54.39.39,0,1,1,.11.54Z"/><path class="Ao Cm" d="M147.68 120.64a.17.17 0 0 1-.05-.22.16.16 0 0 1 .22 0 .15.15 0 0 1 0 .21.15.15 0 0 1-.17.01z"/><path class="Ap CH" d="M105.3 97.92a.18.18 0 0 1 0-.26.19.19 0 0 1 .26-.06.2.2 0 0 1 .06.27.19.19 0 0 1-.32.05z"/><path class="Ab CS" d="M73.08,94.36a1,1,0,1,1,1.15-1.75,1,1,0,0,1-1.15,1.75Z"/><path class="Aq Bu" d="M123 79.12a1 1 0 1 1 1.1-1.65 1 1 0 0 1 .27 1.37 1 1 0 0 1-1.37.28z"/><path class="Ae Bp" d="M116.92 67.07a.53.53 0 0 1-.15-.75.55.55 0 0 1 .75-.16.56.56 0 0 1 .16.76.55.55 0 0 1-.76.15zM164 64.65a.57.57 0 1 1 .8-.16.57.57 0 0 1-.8.16z"/><path class="Ar Cg" d="M173.13,22.85a1.19,1.19,0,0,1,1.32-2,1.19,1.19,0,0,1-1.32,2Z"/><path class="As Co" d="M168.23 4.67a.56.56 0 1 1 .62-.93.55.55 0 0 1 .16.77.56.56 0 0 1-.78.16z"/><path class="At Br" d="M197.92 56a.34.34 0 0 1-.1-.49.35.35 0 0 1 .58.39.34.34 0 0 1-.48.1z"/><path class="Au Ce" d="M252.64 4.37a.69.69 0 1 1 1-.2.69.69 0 0 1-1 .2z"/><path class="Ao Cm" d="M213.38,28.52a1.21,1.21,0,1,1,1.33-2,1.21,1.21,0,0,1-1.33,2Z"/><path class="Av Br" d="M260 23.12a.21.21 0 0 1-.06-.28.21.21 0 0 1 .29-.06.2.2 0 0 1 0 .28.21.21 0 0 1-.23.06z"/><path class="Aa Ch" d="M234.35 37.5a.67.67 0 1 1 .92-.19.66.66 0 0 1-.92.19z"/><path class="Aw Cj" d="M258.06 47.33a.5.5 0 1 1 .69-.14.5.5 0 0 1-.69.14z"/><path class="Ax CB" d="M278.88,29.78a.74.74,0,0,1-.21-1,.74.74,0,1,1,.21,1Z"/><path class="Ay Bx" d="M296 53.5a.27.27 0 1 1 .3-.46.29.29 0 0 1 .08.39.27.27 0 0 1-.38.07z"/><path class="Az Bt" d="M301.43 51.5a.42.42 0 0 1-.12-.57.41.41 0 0 1 .57-.11.42.42 0 0 1 .12.57.41.41 0 0 1-.57.11z"/><path class="BA By" d="M298.05 116.26a.75.75 0 1 1 1-.21.76.76 0 0 1-1 .21z"/><path class="BB CG" d="M313.83 89.3a.89.89 0 1 1 1.23-.25.89.89 0 0 1-1.23.25z"/><path class="BC CI" d="M286.6 145.05a1 1 0 1 1 1.4-.29 1 1 0 0 1-1.4.29z"/><path class="BD Ca" d="M344 133.1a.79.79 0 1 1 1.09-.22.79.79 0 0 1-1.09.22z"/><path class="Aq Bu" d="M351 173.05a.66.66 0 0 1-.18-.92.65.65 0 0 1 .92-.19.66.66 0 0 1 .19.92.68.68 0 0 1-.93.19z"/><path class="Ak Bu" d="M293.53 174.6a1.11 1.11 0 1 1 1.55-.32 1.12 1.12 0 0 1-1.55.32z"/><path class="BE Cc" d="M299.28 219.54a1.31 1.31 0 1 1 1.82-.37 1.32 1.32 0 0 1-1.82.37z"/><path class="BF CD" d="M333 225.37a.69.69 0 0 1-.19-.94.68.68 0 0 1 1.13.75.69.69 0 0 1-.94.19z"/><path class="BG Bv" d="M335.4 222.84a1 1 0 1 1 1.32-.27.95.95 0 0 1-1.32.27z"/><path class="BA By" d="M321.93 249.06a.71.71 0 1 1 1-.2.7.7 0 0 1-1 .2z"/><path class="BB CG" d="M272 258.64a1.14 1.14 0 1 1 1.58-.32 1.13 1.13 0 0 1-1.58.32z"/><path class="Aj Cl" d="M326.75 290a.74.74 0 1 1 1-.21.74.74 0 0 1-1 .21z"/><path class="Aw Cj" d="M302.1 283.1a.16.16 0 0 1 0-.21.15.15 0 0 1 .21 0 .14.14 0 0 1 0 .2.15.15 0 0 1-.21.01z"/><path class="BH Bz" d="M299.77 334.8a.28.28 0 1 1 .39-.08.28.28 0 0 1-.39.08z"/><path class="BI CO" d="M243.33 332.6a.43.43 0 1 1 .6-.12.42.42 0 0 1-.6.12z"/><path class="Aa Ch" d="M226.73 296.76a.62.62 0 1 1 .87-.18.63.63 0 0 1-.87.18z"/><path class="BJ CN" d="M236.33 299.18a1 1 0 1 1 1.43-.29 1 1 0 0 1-1.43.29z"/><path class="BK CE" d="M233.88 303a.55.55 0 0 1-.15-.75.54.54 0 0 1 .9.6.55.55 0 0 1-.75.15z"/><path class="BL CQ" d="M200.27 292.58a.32.32 0 1 1 .45-.09.31.31 0 0 1-.45.09z"/><path class="BM CC" d="M216.44,346.36a.68.68,0,0,1,.75-1.14.68.68,0,1,1-.75,1.14Z"/><path class="BD Ca" d="M185,320a.75.75,0,0,1,.83-1.25.75.75,0,0,1,.21,1A.74.74,0,0,1,185,320Z"/><path class="Az Bt" d="M153.16 347.2a.52.52 0 1 1 .71-.15.51.51 0 0 1-.71.15z"/><path class="BN Bu" d="M132.83 322.2a1.11 1.11 0 1 1 1.54-.31 1.11 1.11 0 0 1-1.54.31z"/><path class="BC CI" d="M158.67,337a.32.32,0,1,1,.36-.54.32.32,0,1,1-.36.54Z"/><path class="BO CJ" d="M127.27 313.65a.45.45 0 1 1 .62-.13.44.44 0 0 1-.62.13z"/><path class="BM CC" d="M113.75 273.23a.69.69 0 1 1 .96-.24.69.69 0 0 1-.96.24z"/><path class="Ae Bp" d="M96.38 283.37a.5.5 0 0 1-.14-.71.51.51 0 0 1 .71-.15.53.53 0 0 1 .15.72.52.52 0 0 1-.72.14z"/><path class="Ah CT" d="M100.74 297.9a.75.75 0 1 1 1-.21.76.76 0 0 1-1 .21z"/><path class="BN Bu" d="M63.2 296.6a.77.77 0 0 1-.21-1.07.76.76 0 0 1 1.07-.22.77.77 0 0 1 .21 1.07.76.76 0 0 1-1.07.22z"/><path class="BP Bq" d="M95.44 291.26a.42.42 0 1 1 .59-.11.43.43 0 0 1-.59.11z"/><path class="BQ Cs" d="M81.53 290.7a.43.43 0 1 1 .59-.12.42.42 0 0 1-.59.12z"/><path class="Am CL" d="M69.06 278a.25.25 0 0 1-.07-.34.25.25 0 0 1 .41.27.25.25 0 0 1-.34.07z"/><path class="BB CG" d="M71.44 261.25a.91.91 0 1 1 1.27-.26.92.92 0 0 1-1.27.26z"/><path class="Aw Cj" d="M36.18 280.5a.62.62 0 0 1-.18-.86.63.63 0 0 1 .86-.17.62.62 0 0 1-.68 1z"/><path class="BR Bp" d="M57,230.56a.93.93,0,0,1-.26-1.28.92.92,0,1,1,.26,1.28Z"/><path class="BS Bv" d="M11.63 260.6a.26.26 0 0 1-.07-.36.25.25 0 0 1 .35-.07.27.27 0 0 1 .08.36.26.26 0 0 1-.36.07z"/><path class="BT Cb" d="M9.6 240.87a.54.54 0 1 1 .75-.15.54.54 0 0 1-.75.15z"/><path class="BF CD" d="M46.1 207.5a.2.2 0 0 1-.05-.28.19.19 0 0 1 .27-.05.2.2 0 0 1 .06.28.2.2 0 0 1-.28.05z"/><path class="BK CE" d="M11.92 215.9a.35.35 0 1 1 .49-.1.35.35 0 0 1-.49.1z"/><path class="Ah CT" d="M11.2 208.94a.29.29 0 0 1-.08-.42.28.28 0 0 1 .41-.08.29.29 0 0 1 .09.41.31.31 0 0 1-.42.09z"/><path class="BF CD" d="M7.83 214.06a.13.13 0 0 1 0-.18.13.13 0 0 1 .18 0A.13.13 0 0 1 8 214a.13.13 0 0 1-.17.06z"/><path class="BL CQ" d="M4.62 105.94a.29.29 0 0 1-.08-.4.29.29 0 0 1 .39-.08.3.3 0 0 1 .08.4.29.29 0 0 1-.39.08z"/><path class="BN Bu" d="M13.08,109.54a.79.79,0,0,1-.22-1.11.8.8,0,1,1,.22,1.11Z"/><path class="Am CL" d="M25.88 49.28a.27.27 0 0 1-.07-.38.27.27 0 0 1 .45.3.28.28 0 0 1-.38.08z"/><path class="BP Bq" d="M41.06 61.35a.73.73 0 1 1 1-.21.73.73 0 0 1-1 .21z"/><path class="BR Bp" d="M13.48,57.58a.65.65,0,1,1,.72-1.09.65.65,0,1,1-.72,1.09Z"/><path class="BU Br" d="M39.44 52.17a.5.5 0 1 1 .68-.14.49.49 0 0 1-.68.14z"/><path class="Av Br" d="M13.8 8.94a.19.19 0 0 1 0-.25.19.19 0 0 1 .25 0 .17.17 0 0 1 0 .25.17.17 0 0 1-.25 0z"/><path class="BV CV" d="M42.7,16.56a.62.62,0,1,1,.68-1,.62.62,0,0,1-.68,1Z"/><path class="Aw Cj" d="M325.32 13.6a.18.18 0 0 1-.06-.25.19.19 0 0 1 .25 0 .18.18 0 0 1 .05.25.18.18 0 0 1-.24 0z"/><path class="As Co" d="M334.65 21.7a.36.36 0 1 1 .51-.1.37.37 0 0 1-.51.1z"/><path class="BW Bw" d="M299.12 25.7A.51.51 0 0 1 299 25a.52.52 0 1 1 .14.71z"/><path class="BX CZ" d="M350.06 45.1a.38.38 0 0 1-.1-.51.37.37 0 0 1 .51-.11.36.36 0 0 1 .1.51.37.37 0 0 1-.51.11z"/><path class="BE Cc" d="M337.23 86.13a.93.93 0 0 1-.26-1.28.92.92 0 1 1 1.54 1 .93.93 0 0 1-1.28.28z"/><path class="Ai CY" d="M314.66 104.7a.84.84 0 1 1 .92-1.4.84.84 0 0 1-.92 1.4z"/><path class="AZ Bq" d="M317.94 64.75a1 1 0 1 1 1.4-.29 1 1 0 0 1-1.4.29z"/><path class="Aa Ch" d="M311.34 79.8a.28.28 0 0 1-.08-.39.28.28 0 0 1 .38-.08.28.28 0 0 1 .08.39.28.28 0 0 1-.38.08z"/><path class="BT Cb" d="M374.8 104a.71.71 0 1 1 .78-1.18.71.71 0 1 1-.78 1.18z"/><path class="Ai CY" d="M350.1,115.17a.79.79,0,1,1,.87-1.33.79.79,0,0,1-.87,1.33Z"/><path class="Af Bp" d="M328.9 156.26a.69.69 0 0 1 .76-1.16.69.69 0 1 1-.76 1.16z"/><path class="BY Bq" d="M358.23 142.73a.74.74 0 1 1 1-.21.74.74 0 0 1-1 .21z"/><path class="BM CC" d="M341.42 177.92a.25.25 0 1 1 .28-.43.27.27 0 0 1 .08.36.26.26 0 0 1-.36.07z"/><path class="BZ CU" d="M353.5 156.16a.22.22 0 1 1 .24-.36.22.22 0 1 1-.24.36z"/><path class="BY Bq" d="M341.37 162.1a.79.79 0 0 1-.23-1.1.81.81 0 0 1 1.11-.22.8.8 0 0 1 .22 1.1.78.78 0 0 1-1.1.22z"/><path class="AZ Bq" d="M351.42 188.7a.46.46 0 1 1 .63-.13.45.45 0 0 1-.63.13z"/><path class="BD Ca" d="M329.1 187.26a1.06 1.06 0 1 1 1.47-.3 1.06 1.06 0 0 1-1.47.3z"/><path class="Ba Bs" d="M329.65 234.06a1 1 0 1 1 1.42-.28 1 1 0 0 1-1.42.28z"/><path class="Bb CM" d="M343 242.82a.37.37 0 0 1-.11-.53.39.39 0 0 1 .53-.11.39.39 0 0 1 .11.53.38.38 0 0 1-.53.11z"/><path class="BK CE" d="M371.68 245.26A1 1 0 1 1 373 245a1 1 0 0 1-1.32.26z"/><path class="At Br" d="M343.08,242.52a.68.68,0,0,1-.19-.94.66.66,0,0,1,.93-.19.68.68,0,0,1-.74,1.13Z"/><path class="BB CG" d="M331.6 300.62a.69.69 0 1 1 1-.19.68.68 0 0 1-1 .19z"/><path class="Aq Bu" d="M314 334.06a.64.64 0 0 1-.18-.88.63.63 0 1 1 .18.88z"/><path class="BN Bu" d="M288.76 340.34a1 1 0 1 1 1.08-1.62 1 1 0 0 1 .27 1.34 1 1 0 0 1-1.35.28z"/><path class="BS Bv" d="M308.05 337a.7.7 0 0 1 .77-1.16.68.68 0 0 1 .19 1 .69.69 0 0 1-.96.16z"/><path class="Ap CH" d="M274.8 323.6a.16.16 0 1 1 .22 0 .17.17 0 0 1-.22 0z"/><path class="At Br" d="M272 335.84a.53.53 0 1 1 .74-.15.53.53 0 0 1-.74.15z"/><path class="BA By" d="M11.5 161.35a.5.5 0 1 1 .7-.14.5.5 0 0 1-.7.14z"/><path class="Af Bp" d="M26.35 199.2a.41.41 0 0 1-.12-.56.39.39 0 0 1 .56-.11.38.38 0 0 1 .11.55.39.39 0 0 1-.55.12z"/><path class="BK CE" d="M4.22 242.2a.71.71 0 1 1 1-.2.7.7 0 0 1-1 .2z"/><path class="Ay Bx" d="M35.48 207.4a.45.45 0 0 1 .5-.75.45.45 0 1 1-.5.75z"/><path class="AZ Bq" d="M51.47,250.07a.92.92,0,0,1-.26-1.29.93.93,0,1,1,.26,1.29Z"/><path class="BY Bq" d="M35.38 278.9a.72.72 0 0 1 .8-1.2.71.71 0 0 1 .2 1 .73.73 0 0 1-1 .2z"/><path class="Av Br" d="M84.76,238.76a.41.41,0,0,1-.11-.56.4.4,0,1,1,.11.56Z"/><path class="BF CD" d="M70.25,338.22a.74.74,0,1,1,.82-1.24.74.74,0,0,1-.82,1.24Z"/><path class="AX CK" d="M100.78 273.73a.831.831 0 1 1 1.15-.24.84.84 0 0 1-1.15.24z"/><path class="BW Bw" d="M48 301.6a.7.7 0 1 1 .78-1.17.69.69 0 0 1 .19 1 .7.7 0 0 1-.97.17z"/><path class="AX CK" d="M58.6 260.6a.17.17 0 0 1 .18-.28.17.17 0 0 1-.18.28z"/><path class="BV CV" d="M48.24 255.22a.69.69 0 1 1 1-.19.7.7 0 0 1-1 .19z"/><path class="Bc Cr" d="M14.3 282.2a.71.71 0 0 1-.2-1 .72.72 0 0 1 1-.2.71.71 0 0 1 .19 1 .69.69 0 0 1-.99.2z"/><path class="Ba Bs" d="M43.5 267a1.05 1.05 0 1 1 1.16-1.76 1.05 1.05 0 0 1-1.16 1.76z"/><path class="BW Bw" d="M55.5 256.7a1.11 1.11 0 0 1-.32-1.54 1.12 1.12 0 1 1 .32 1.54z"/><path class="BF CD" d="M41 220.82a1 1 0 0 1-.27-1.33 1 1 0 0 1 1.32-.27 1 1 0 0 1 .27 1.33 1 1 0 0 1-1.32.27z"/><path class="BW Bw" d="M3.63 242.32a.8.8 0 1 1 1.11-.22.8.8 0 0 1-1.11.22z"/><path class="Bc Cr" d="M45.5 232.55a.74.74 0 1 1 1-.21.74.74 0 0 1-1 .21z"/><path class="Aq Bu" d="M57.13 221.6a.87.87 0 1 1 1.2-.2.87.87 0 0 1-1.2.2z"/><path class="Aw Cj" d="M59.12 242.4a.27.27 0 1 1 .37-.08.27.27 0 0 1-.37.08z"/><path class="BR Bp" d="M73.26 214.36a.41.41 0 0 1-.11-.57.41.41 0 0 1 .56-.11.41.41 0 0 1 .12.56.42.42 0 0 1-.57.12z"/><path class="AV Cf" d="M87.2 202.25a.67.67 0 1 1 .93-.19.66.66 0 0 1-.93.19z"/><path class="BQ Cs" d="M71.78 196.75a.79.79 0 0 1-.22-1.11.8.8 0 0 1 1.11-.23.82.82 0 0 1 .23 1.12.81.81 0 0 1-1.12.22z"/><path class="Am CL" d="M80.73 201a.804.804 0 0 1 .89-1.34.804.804 0 1 1-.89 1.34zm40.77 20.06a.65.65 0 1 1 .71-1.08.66.66 0 0 1 .19.9.65.65 0 0 1-.9.18z"/><path class="BF CD" d="M93 211.35a.39.39 0 1 1 .54-.11.39.39 0 0 1-.54.11z"/><path class="Ab CS" d="M102,192a1.24,1.24,0,1,1,1.72-.35A1.24,1.24,0,0,1,102,192Z"/><path class="Bd Bx" d="M132.4 263.2a.19.19 0 0 1 0-.25.18.18 0 1 1 0 .25z"/><path class="Ax CB" d="M166.54 214.07a.76.76 0 1 1 1.06-.21.76.76 0 0 1-1.06.21z"/><path class="BC CI" d="M143.2 243.05a.67.67 0 0 1 .74-1.12.67.67 0 1 1-.74 1.12z"/><path class="BW Bw" d="M185.07 225.94a.86.86 0 0 1-.25-1.19.87.87 0 0 1 1.2-.25.86.86 0 0 1 .24 1.2.85.85 0 0 1-1.19.24z"/><path class="Af Bp" d="M192.55 256a1.1 1.1 0 0 1 1.21-1.83 1.11 1.11 0 0 1 .31 1.52 1.09 1.09 0 0 1-1.52.31z"/><path class="At Br" d="M213.53 245.5a1.35 1.35 0 1 1 1.88-.38 1.36 1.36 0 0 1-1.88.38z"/><path class="Ac CX" d="M237.85 210.26a.37.37 0 1 1 .51-.1.37.37 0 0 1-.51.1z"/><path class="BA By" d="M265.16,247a.49.49,0,0,1-.14-.68.5.5,0,0,1,.68-.14.49.49,0,0,1-.54.82Z"/><path class="BW Bw" d="M238.24,287.27a.5.5,0,0,1-.14-.68.49.49,0,1,1,.14.68Z"/><path class="BS Bv" d="M257.4 320.67a.74.74 0 0 1-.21-1 .74.74 0 0 1 1.23.81.74.74 0 0 1-1.02.19z"/><path class="Be Ct" d="M253.2 309.48a1.28 1.28 0 1 1 1.78-.36 1.29 1.29 0 0 1-1.78.36z"/><path class="Az Bt" d="M242.7 318a.28.28 0 1 1 .39-.08.28.28 0 0 1-.39.08z"/><path class="Ax CB" d="M265.42 345.4a.69.69 0 0 1-.2-1 .71.71 0 0 1 1-.2.69.69 0 0 1 .19 1 .68.68 0 0 1-.99.2z"/><path class="BG Bv" d="M253.76,349.75a.45.45,0,0,1-.12-.61.44.44,0,0,1,.61-.12.44.44,0,1,1-.49.73Z"/><path class="Bf Bs" d="M259.7 345a.14.14 0 1 1 .2-.2.15.15 0 0 1 0 .2.16.16 0 0 1-.2 0z"/><path class="AX CK" d="M0 39.83v.75a.38.38 0 0 0 .11-.11.48.48 0 0 0-.11-.64z"/><path class="BH Bz" d="M14.44,22.65a.33.33,0,0,1-.1-.46.34.34,0,0,1,.46-.1.33.33,0,1,1-.36.56Z"/><path class="BX CZ" d="M70.07 53.07a.6.6 0 0 1-.16-.83.59.59 0 0 1 .83-.17.61.61 0 0 1 .17.83.62.62 0 0 1-.84.17z"/><path class="Au Ce" d="M76.64 42.28a.52.52 0 1 1 .57-.86.53.53 0 0 1 .15.72.52.52 0 0 1-.72.14z"/><path class="An Cd" d="M102.1 7.4a1.41 1.41 0 1 1 2-.39 1.41 1.41 0 0 1-2 .39z"/><circle class="Bg Bt" cx="356.49" cy="19.58" r=".96" transform="matrix(.979959 -.199197 .199197 .979959 3.25 71.43)"/><path class="Bh Cn" d="M375.5 10.4a.885.885 0 1 1 1.25-.25.89.89 0 0 1-1.25.25z"/><circle class="Ai CY" cx="339.25" cy="40.27" r=".79"/><path class="Ae Bp" d="M398.35 46.92a.87.87 0 1 1 1.21-.24.87.87 0 0 1-1.21.24z"/><path class="BT Cb" d="M369.44 44.68a.21.21 0 1 1 .29-.06.2.2 0 0 1-.29.06z"/><path class="BM CC" d="M393.44 23.08a.65.65 0 0 1 .71-1.08.66.66 0 0 1 .19.9.65.65 0 0 1-.9.18z"/><path class="Bi Bs" d="M393.45 66.85a.53.53 0 0 1-.15-.73.52.52 0 0 1 .87.58.53.53 0 0 1-.72.15z"/><path class="Ar Cg" d="M438.05,68.16a.54.54,0,1,1,.6-.9.54.54,0,0,1-.6.9Z"/><path class="Ax CB" d="M423.34 94.38a.82.82 0 0 1-.23-1.13.82.82 0 1 1 1.36.9.82.82 0 0 1-1.13.23z"/><circle class="BK CE" cx="370.15" cy="72.42" r=".58" transform="matrix(.979925 -.199368 .199368 .979925 -7.01 75.22)"/><path class="As Co" d="M393.84 102.7a.86.86 0 0 1-.24-1.2.85.85 0 0 1 1.19-.24.86.86 0 0 1 .25 1.19.87.87 0 0 1-1.2.25z"/><path class="Ax CB" d="M353.5 129.7a.3.3 0 0 1-.08-.41.3.3 0 0 1 .41-.09.31.31 0 0 1 .09.42.31.31 0 0 1-.42.08z"/><path class="BY Bq" d="M431 144.73a.32.32 0 1 1 .45-.09.32.32 0 0 1-.45.09z"/><path class="AZ Bq" d="M425 132.18a1.38 1.38 0 1 1 1.91-.38 1.38 1.38 0 0 1-1.91.38z"/><path class="Al CP" d="M433 150.23a.85.85 0 0 1-.23-1.17.84.84 0 1 1 .23 1.17z"/><path class="BR Bp" d="M379.91,170.52a.36.36,0,0,1-.1-.49.35.35,0,0,1,.49-.1.35.35,0,1,1-.39.59Z"/><path class="AZ Bq" d="M365.88 163.5a.21.21 0 0 1-.06-.28.22.22 0 0 1 .29-.06.21.21 0 0 1 .05.29.2.2 0 0 1-.28.05z"/><path class="BR Bp" d="M400.67 220.16a.26.26 0 0 1-.07-.35.252.252 0 1 1 .07.35z"/><path class="Bj Bt" d="M394.4 211.9a.24.24 0 0 1-.06-.32.23.23 0 0 1 .32-.07.24.24 0 0 1 .06.32.23.23 0 0 1-.32.07z"/><path class="BD Ca" d="M385 224.6a.54.54 0 0 1-.15-.74.53.53 0 1 1 .15.74z"/><path class="BR Bp" d="M376.17,259.16a.76.76,0,0,1-.21-1,.75.75,0,1,1,.21,1Z"/><path class="BZ CU" d="M407 262.76a.34.34 0 0 1-.09-.48.35.35 0 1 1 .58.38.36.36 0 0 1-.49.1z"/><path class="Bk Ck" d="M389.6 284.54a.93.93 0 0 1-.26-1.28.92.92 0 1 1 1.54 1 .93.93 0 0 1-1.28.28z"/><path class="Ab CS" d="M291.87 177.1a.38.38 0 0 1-.11-.52.38.38 0 0 1 .52-.11.38.38 0 0 1-.41.63z"/><path class="BY Bq" d="M269.9 196.34a.45.45 0 0 1-.13-.63.46.46 0 0 1 .64-.13.46.46 0 0 1-.51.76z"/><path class="Bg Bt" d="M270.66,214.32a.63.63,0,0,1,.69-1,.63.63,0,0,1-.69,1Z"/><path class="Av Br" d="M277 175.23a.89.89 0 1 1 1.24-.25.9.9 0 0 1-1.24.25z"/><path class="BH Bz" d="M275.68 246.67a.27.27 0 1 1 .31-.46.28.28 0 0 1 .08.39.28.28 0 0 1-.39.07z"/><path class="AZ Bq" d="M213.08,257.43a.5.5,0,0,1-.14-.7.5.5,0,1,1,.14.7Z"/><path class="An Cd" d="M187.15 216.5a.79.79 0 1 1 1.09-.23.79.79 0 0 1-1.09.23z"/><path class="AW CW" d="M198.8 232.36a.56.56 0 1 1 .78-.16.56.56 0 0 1-.78.16z"/><path class="BV CV" d="M195.88,207a.22.22,0,0,1,.24-.36.22.22,0,1,1-.24.36Z"/><path class="Au Ce" d="M149.37 230.78a.53.53 0 1 1 .74-.15.54.54 0 0 1-.74.15z"/><path class="Ax CB" d="M157.15 185.4a.15.15 0 0 1 0-.21.15.15 0 0 1 .21 0 .16.16 0 0 1 .05.21.16.16 0 0 1-.26 0z"/><path class="BF CD" d="M94.83,194.64a.68.68,0,1,1,.75-1.13.68.68,0,0,1-.75,1.13Z"/><path class="AX CK" d="M85.94,202.15a1,1,0,0,1-.27-1.31,1,1,0,0,1,1.31-.26.94.94,0,1,1-1,1.57Z"/><path class="Bg Bt" d="M14.9 219.86a1.31 1.31 0 1 1 1.82-.37 1.32 1.32 0 0 1-1.82.37z"/><path class="BH Bz" d="M64.13,175.22a.44.44,0,0,1-.13-.62.45.45,0,1,1,.13.62Z"/><path class="BL CQ" d="M9.86 153a.37.37 0 0 1-.1-.52.38.38 0 0 1 .52-.11.39.39 0 0 1 .11.53.38.38 0 0 1-.53.1z"/><path class="Az Bt" d="M6.5 114.2a1.18 1.18 0 1 1 1.63-.33 1.18 1.18 0 0 1-1.63.33z"/><path class="Be Ct" d="M2.52 72a.54.54 0 0 1-.15-.75.53.53 0 1 1 .89.59.53.53 0 0 1-.74.16z"/><path class="BW Bw" d="M28.35 26.44a.13.13 0 0 1 0-.17.12.12 0 1 1 .17.17.12.12 0 0 1-.17 0z"/><path class="AZ Bq" d="M39.08 10a.21.21 0 0 1 0-.28.2.2 0 1 1 .33.22.21.21 0 0 1-.33.06z"/><path class="BN Bu" d="M424.05.42a.51.51 0 0 0 .7-.14.55.55 0 0 0 .07-.28h-1a.51.51 0 0 0 .23.42z"/><path class="BC CI" d="M427 10.68a1 1 0 1 1 1.39-.29 1 1 0 0 1-1.39.29z"/><path class="Ar Cg" d="M420.63 34.46a.59.59 0 0 1-.17-.81.6.6 0 0 1 .82-.17.59.59 0 0 1 .16.82.58.58 0 0 1-.81.16z"/><path class="Bi Bs" d="M444.1 68.76a.89.89 0 1 1 1.23-.25.88.88 0 0 1-1.23.25z"/><path class="Au Ce" d="M408.54 87.7a.12.12 0 0 1 0-.16.12.12 0 1 1 .19.13.11.11 0 0 1-.19.03z"/><path class="Be Ct" d="M433.18 72.65a.62.62 0 0 1-.17-.86.61.61 0 1 1 1 .68.61.61 0 0 1-.83.18zm12.57 21.6a.82.82 0 0 1-.23-1.14.83.83 0 1 1 1.38.91.82.82 0 0 1-1.15.23z"/><path class="BR Bp" d="M402.23,108.58a.82.82,0,0,1,.91-1.37.82.82,0,1,1-.91,1.37Z"/><path class="Aj Cl" d="M433.15 136a.89.89 0 1 1 1.23-.25.89.89 0 0 1-1.23.25z"/><path class="Ak Bu" d="M426.66,147.84a.3.3,0,0,1-.08-.41.3.3,0,1,1,.08.41Z"/><path class="AV Cf" d="M413.13 200.65a1.4 1.4 0 1 1 1.94-.4 1.41 1.41 0 0 1-1.94.4z"/><path class="BI CO" d="M343 186.7a.55.55 0 0 1-.16-.77.56.56 0 1 1 .16.77z"/><path class="Bl Cp" d="M412.53 224.8a.66.66 0 0 1-.18-.91.65.65 0 0 1 1.09.72.66.66 0 0 1-.91.19z"/><path class="AW CW" d="M338.78 182.84a.42.42 0 0 1-.12-.59.43.43 0 1 1 .71.47.42.42 0 0 1-.59.12z"/><path class="BY Bq" d="M411.17,215a.73.73,0,0,1-.21-1,.74.74,0,1,1,.21,1Z"/><path class="Bd Bx" d="M351.34 248.44a.37.37 0 0 1-.1-.51.36.36 0 1 1 .61.4.37.37 0 0 1-.51.11z"/><path class="Bf Bs" d="M342 251.53a1 1 0 0 1-.28-1.35 1 1 0 0 1 1.35-.27 1 1 0 0 1 .27 1.34 1 1 0 0 1-1.34.28z"/><path class="Bl Cp" d="M308.87,252.69a.6.6,0,0,1-.17-.82.59.59,0,0,1,.82-.17.59.59,0,0,1-.65,1Z"/><path class="BZ CU" d="M307.92,230.77a.84.84,0,0,1-.24-1.16.85.85,0,0,1,1.16-.23.83.83,0,0,1-.92,1.39Z"/><path class="BU Br" d="M304.45 306.63a1.07 1.07 0 1 1 1.49-.3 1.08 1.08 0 0 1-1.49.3z"/><path class="AV Cf" d="M278.68 250.42a.28.28 0 0 1-.08-.38.28.28 0 0 1 .4-.04.27.27 0 0 1 .08.38.28.28 0 0 1-.4.04z"/><path class="Aj Cl" d="M250.15 288.1a.84.84 0 1 1 1.17-.24.84.84 0 0 1-1.17.24z"/><path class="BX CZ" d="M275.25,322a.82.82,0,0,1-.23-1.12.79.79,0,0,1,1.11-.22.8.8,0,1,1-.88,1.34Z"/><path class="Ba Bs" d="M246,288a1,1,0,0,1-.27-1.32,1,1,0,0,1,1.33-.27A1,1,0,1,1,246,288Z"/><path class="Ak Bu" d="M243.2 301.78a.86.86 0 0 1-.24-1.2.87.87 0 1 1 1.44 1 .86.86 0 0 1-1.2.2z"/><path class="Aa Ch" d="M228.27 323.32a.32.32 0 0 1-.09-.44.32.32 0 0 1 .53.35.31.31 0 0 1-.44.09z"/><path class="Am CL" d="M237.88 262.48a.52.52 0 1 1 .72-.14.52.52 0 0 1-.72.14z"/><path class="Bg Bt" d="M182.58 297.68a.69.69 0 0 1-.19-.95.69.69 0 0 1 1.15.76.7.7 0 0 1-.96.19z"/><path class="Bi Bs" d="M194.45 288.5a.35.35 0 0 1-.1-.49.354.354 0 0 1 .59.39.35.35 0 0 1-.49.1z"/><path class="Ah CT" d="M195.53 311.88a.89.89 0 1 1 1.23-.25.89.89 0 0 1-1.23.25z"/><path class="AY CR" d="M203.22 291.47a.61.61 0 1 1 .84-.17.61.61 0 0 1-.84.17z"/><path class="BX CZ" d="M197.42 255.74a.22.22 0 0 1-.06-.29.21.21 0 0 1 .29-.06.21.21 0 0 1 .06.29.22.22 0 0 1-.29.06z"/><path class="AZ Bq" d="M174.9 283a.82.82 0 0 1-.23-1.12.83.83 0 0 1 1.13-.23.82.82 0 0 1 .22 1.13.8.8 0 0 1-1.12.22z"/><path class="Av Br" d="M139.9 260.83a1.19 1.19 0 0 1-.33-1.66 1.198 1.198 0 0 1 2 1.32 1.21 1.21 0 0 1-1.67.34z"/><path class="Aw Cj" d="M76.56,248.15a.37.37,0,0,1-.1-.5.36.36,0,1,1,.1.5Z"/><path class="BZ CU" d="M88.88 252.15a1.35 1.35 0 0 1-.38-1.87 1.35 1.35 0 0 1 2.25 1.49 1.35 1.35 0 0 1-1.87.38z"/><path class="BJ CN" d="M65.63 247.57a.41.41 0 1 1 .57-.12.41.41 0 0 1-.57.12z"/><path class="Bc Cr" d="M44.18 244.56a.61.61 0 1 1 .85-.17.61.61 0 0 1-.85.17z"/><path class="BH Bz" d="M54.86,209a.33.33,0,0,1-.1-.46.34.34,0,0,1,.47-.1.34.34,0,0,1-.37.56Z"/><path class="BV CV" d="M36.06 199.5a.7.7 0 1 1 1-.2.7.7 0 0 1-1 .2z"/><path class="Ay Bx" d="M50.6 176.5a.85.85 0 0 1 .93-1.42.85.85 0 0 1 .24 1.18.84.84 0 0 1-1.17.24z"/><path class="BI CO" d="M6.9 214.6a.51.51 0 0 1 .56-.86.51.51 0 1 1-.56.86z"/><path class="Ba Bs" d="M5.08,202.38a1.08,1.08,0,0,1-.31-1.5,1.09,1.09,0,1,1,.31,1.5Z"/><path class="Bh Cn" d="M35.07 190.6a.52.52 0 0 1-.15-.73.53.53 0 1 1 .88.58.52.52 0 0 1-.73.15z"/><path class="BI CO" d="M44.1 166.7a.21.21 0 0 1-.06-.29.21.21 0 0 1 .29-.06.22.22 0 0 1 .06.29.22.22 0 0 1-.29.06z"/><path class="AW CW" d="M38.33 175.26a.6.6 0 0 1-.17-.82.61.61 0 0 1 .83-.17.59.59 0 1 1-.66.99z"/><path class="Bf Bs" d="M1.9 158.27a.21.21 0 0 1-.06-.29.21.21 0 0 1 .35.23.21.21 0 0 1-.29.06z"/><path class="AW CW" d="M26.6 326a1.014 1.014 0 1 1 1.41-.29 1 1 0 0 1-1.41.29z"/><path class="An Cd" d="M47.12 338.9a.74.74 0 1 1 1-.21.74.74 0 0 1-1 .21z"/><path class="AX CK" d="M368.64 345.07a.39.39 0 0 1 .43-.65.4.4 0 0 1 .1.54.37.37 0 0 1-.53.11z"/><path class="Au Ce" d="M411.42 347a.4.4 0 1 1 .55-.11.4.4 0 0 1-.55.11z"/><path class="BI CO" d="M393.73 327.68a1.08 1.08 0 0 1-.31-1.5 1.09 1.09 0 1 1 1.82 1.2 1.08 1.08 0 0 1-1.51.3z"/><path class="Bh Cn" d="M403.22 328.64a.69.69 0 0 1-.19-.94.68.68 0 0 1 1.13.75.69.69 0 0 1-.94.19z"/><circle class="BN Bu" cx="446.53" cy="278.17" r=".7"/><path class="BU Br" d="M406.67 30.15a1.07 1.07 0 1 1 1.48-.3 1.08 1.08 0 0 1-1.48.3z"/><path class="BP Bq" d="M404.06 13.65a.49.49 0 0 1-.14-.69.5.5 0 0 1 .7-.15.51.51 0 0 1 .14.7.5.5 0 0 1-.7.14z"/><path class="Ag Ci" d="M432.05 18.68a.84.84 0 1 1 1.16-.23.83.83 0 0 1-1.16.23z"/><path class="Bg Bt" d="M447.44 57.2a.33.33 0 0 1-.09-.44.32.32 0 0 1 .45-.09.33.33 0 0 1 .09.44.32.32 0 0 1-.45.09z"/><path class="Ab CS" d="M417.3 48.27a.45.45 0 0 1-.13-.62.45.45 0 1 1 .75.49.45.45 0 0 1-.62.13z"/><path class="BO CJ" d="M431.64 191.88a1.12 1.12 0 1 1 1.55-.32 1.12 1.12 0 0 1-1.55.32z"/><path class="Ba Bs" d="M441.7 234.65a.84.84 0 1 1 1.16-.24.84.84 0 0 1-1.16.24z"/><path class="BK CE" d="M285.32 68a.75.75 0 0 1 1-.38.77.77 0 0 1 .39 1 .78.78 0 0 1-1 .39.76.76 0 0 1-.39-1.01z"/><path class="BC CI" d="M236.16 99.5a.23.23 0 0 1 .31-.12.23.23 0 0 1 .11.31.23.23 0 0 1-.31.12.24.24 0 0 1-.11-.31z"/><path class="BN Bu" d="M263.16 113.78a.27.27 0 0 1 .36-.14.28.28 0 0 1 .13.36.27.27 0 0 1-.36.14.28.28 0 0 1-.13-.36z"/><path class="Ba Bs" d="M231.28 137.3a.17.17 0 1 1 .09.22.17.17 0 0 1-.09-.22z"/><path class="BF CD" d="M267.34 120.73a1.22 1.22 0 1 1 .62 1.62 1.22 1.22 0 0 1-.62-1.62z"/><path class="BJ CN" d="M276.12 114.23a.75.75 0 1 1 .37 1 .75.75 0 0 1-.37-1z"/><path class="BN Bu" d="M279.93 141.88a.92.92 0 0 1 1.2-.45.91.91 0 1 1-.75 1.65.91.91 0 0 1-.45-1.2z"/><path class="Bj Bt" d="M268.25 147.3a1 1 0 0 1 1.31-.5 1 1 0 0 1 .5 1.32 1 1 0 0 1-1.32.49 1 1 0 0 1-.49-1.31z"/><path class="BB CG" d="M266.23 155.7a.92.92 0 0 1 1.21-.46.91.91 0 0 1 .45 1.21.9.9 0 0 1-1.2.45.91.91 0 0 1-.46-1.2z"/><path class="Aq Bu" d="M215 145.48a.31.31 0 0 1 .4-.14.3.3 0 0 1 .15.39.3.3 0 0 1-.4.15.31.31 0 0 1-.15-.4z"/><path class="AY CR" d="M239.68 153.74a1 1 0 1 1 .48 1.26 1 1 0 0 1-.48-1.26z"/><path class="Ak Bu" d="M222.82 156.17a1.07 1.07 0 1 1 2 .88 1.06 1.06 0 0 1-1.42.53 1.05 1.05 0 0 1-.58-1.41z"/><path class="Ap CH" d="M237.23 238a.36.36 0 0 1 .47-.18.36.36 0 0 1 .17.47.35.35 0 0 1-.46.17.36.36 0 0 1-.18-.46z"/><path class="BH Bz" d="M219.26,182a.14.14,0,0,1,.19-.07.14.14,0,0,1,.08.19.15.15,0,1,1-.27-.12Z"/><path class="Ac CX" d="M220.68 174.26a.1.1 0 0 1 .13 0 .1.1 0 1 1-.08.18.1.1 0 0 1-.05-.18z"/><path class="Ao Cm" d="M213.52,239a.62.62,0,0,1,.82-.31.62.62,0,1,1-.82.31Z"/><path class="BM CC" d="M152.12 171.7a.22.22 0 0 1 .29-.11.21.21 0 0 1 .11.28.22.22 0 0 1-.29.11.21.21 0 0 1-.11-.28z"/><path class="AY CR" d="M200.2 158.33a.34.34 0 0 1 .47-.17.36.36 0 1 1-.29.65.37.37 0 0 1-.18-.48z"/><path class="BA By" d="M194.14 162.56a.41.41 0 1 1 .75.33.42.42 0 0 1-.55.21.41.41 0 0 1-.2-.54z"/><path class="BM CC" d="M198,157.43a.79.79,0,0,1,1.44.65.79.79,0,1,1-1.44-.65Z"/><path class="BA By" d="M213.3 139.64a.67.67 0 0 1 .88-.33.65.65 0 0 1 .33.88.66.66 0 0 1-1.21-.55z"/><path class="At Br" d="M186.68 99.8a.25.25 0 0 1 .33-.12.24.24 0 0 1 .12.32.23.23 0 0 1-.32.12.24.24 0 0 1-.13-.32z"/><path class="Bm CF" d="M187.53 84.25a1.13 1.13 0 1 1 .56 1.49 1.12 1.12 0 0 1-.56-1.49z"/><path class="BL CQ" d="M241.54 134.25a.39.39 0 1 1 .2.52.39.39 0 0 1-.2-.52z"/><path class="BW Bw" d="M224.7 56a.423.423 0 1 1 .21.56.43.43 0 0 1-.21-.56z"/><path class="Aa Ch" d="M236.3 6.25a1 1 0 1 1 .52 1.39 1 1 0 0 1-.52-1.39z"/><circle class="Bm CF" cx="260.17" cy="53.55" r=".99"/><path class="Bg Bt" d="M254.53 61.37a.65.65 0 1 1 .32.86.64.64 0 0 1-.32-.86z"/><path class="BJ CN" d="M299.12 23.07a.17.17 0 1 1 .09.23.18.18 0 0 1-.09-.23z"/><path class="BC CI" d="M304.9 62.3a.24.24 0 0 1 .32-.12.23.23 0 0 1 .12.32.24.24 0 1 1-.44-.2z"/><path class="Ap CH" d="M291.57 52.7a.76.76 0 0 1 1-.38.76.76 0 0 1-.62 1.38.76.76 0 0 1-.38-1z"/><path class="Bb CM" d="M359.38 40.16a.65.65 0 1 1 .33.86.65.65 0 0 1-.33-.86z"/><path class="BG Bv" d="M330.28 75.54a1 1 0 0 1 1.31-.49 1 1 0 0 1 .5 1.31 1 1 0 0 1-1.32.5 1 1 0 0 1-.49-1.32z"/><path class="BP Bq" d="M280.05 91.3a.56.56 0 0 1 .76-.28.58.58 0 0 1-.47 1 .59.59 0 0 1-.29-.72z"/><path class="BV CV" d="M354.4 93.08a.3.3 0 0 1 .4-.16.31.31 0 0 1 .16.41.32.32 0 0 1-.41.15.3.3 0 0 1-.15-.4z"/><path class="BS Bv" d="M322.78,93.7a1.19,1.19,0,0,1,1.57-.59,1.19,1.19,0,1,1-1.57.59Z"/><path class="BF CD" d="M339.94,86a.58.58,0,0,1,.75-.28.57.57,0,0,1,.28.75.57.57,0,1,1-1-.47Z"/><path class="BK CE" d="M294 123.43a.36.36 0 0 1 .47-.18.36.36 0 0 1 .17.47.35.35 0 0 1-.46.17.35.35 0 0 1-.18-.46z"/><path class="Ae Bp" d="M310.87 131.24a.74.74 0 1 1 .37 1 .75.75 0 0 1-.37-1z"/><path class="BB CG" d="M353.63,169.27a.69.69,0,0,1,.92-.34.68.68,0,0,1,.34.91.69.69,0,1,1-1.26-.57Z"/><path class="Bd Bx" d="M313.55 133.5a.53.53 0 1 1 .27.69.52.52 0 0 1-.27-.69z"/><path class="Aj Cl" d="M318 156.48a.66.66 0 0 1 .88-.34.67.67 0 0 1 .33.88.67.67 0 0 1-.88.34.66.66 0 0 1-.33-.88z"/><path class="Af Bp" d="M314.82 224.92a.39.39 0 0 1 .54-.2.41.41 0 0 1 .21.54.42.42 0 0 1-.55.21.41.41 0 0 1-.2-.55z"/><path class="BA By" d="M280.13,222.77a.78.78,0,1,1,1.42.65.78.78,0,0,1-1.42-.65Z"/><path class="BH Bz" d="M279.1 217.37a1.43 1.43 0 1 1 .71 1.89 1.43 1.43 0 0 1-.71-1.89z"/><path class="BX CZ" d="M293.65 218.8a.58.58 0 0 1 .76-.28.57.57 0 1 1-.76.28z"/><path class="Ay Bx" d="M250.36 231.86a.74.74 0 1 1 .37 1 .74.74 0 0 1-.37-1z"/><path class="BD Ca" d="M279.47 243.15a.9.9 0 1 1 .45 1.19.91.91 0 0 1-.45-1.19z"/><path class="Ah CT" d="M262.75 254.63a.79.79 0 1 1 .39 1 .79.79 0 0 1-.39-1zM241 279.92a.79.79 0 1 1 .39 1 .79.79 0 0 1-.39-1z"/><path class="Bc Cr" d="M202.68 293.16a.67.67 0 1 1 .33.88.67.67 0 0 1-.33-.88z"/><path class="Av Br" d="M192 236.64a1.11 1.11 0 1 1 .55 1.48 1.11 1.11 0 0 1-.55-1.48z"/><path class="As Co" d="M194.53 284.86a.4.4 0 0 1 .52-.19.39.39 0 0 1 .19.51.39.39 0 0 1-.51.2.4.4 0 0 1-.2-.52z"/><path class="Bf Bs" d="M154.3 291.37a.79.79 0 1 1 .39 1.05.79.79 0 0 1-.39-1.05z"/><path class="Ax CB" d="M148.16 283.63a.68.68 0 0 1 .89-.33.67.67 0 0 1 .34.89.66.66 0 0 1-.89.33.67.67 0 0 1-.34-.89z"/><path class="BY Bq" d="M151 285.63a1 1 0 1 1 .48 1.26 1 1 0 0 1-.48-1.26z"/><path class="Ba Bs" d="M98.62,306a.47.47,0,1,1,.86.39.47.47,0,0,1-.86-.39Z"/><path class="BC CI" d="M108.73,286.55a.82.82,0,0,1,1.5.67.82.82,0,0,1-1.5-.67Z"/><path class="Al CP" d="M123 276.5a.71.71 0 1 1 .36.94.72.72 0 0 1-.36-.94z"/><path class="Av Br" d="M87.7 256.25a.11.11 0 1 1 .19.09.11.11 0 0 1-.14.05.11.11 0 0 1-.05-.14z"/><path class="As Co" d="M34.85 268.2a.27.27 0 0 1 .37-.14.28.28 0 0 1 .14.37.27.27 0 1 1-.51-.23z"/><path class="Aj Cl" d="M29.68,219.33a.27.27,0,1,1,.5.22.27.27,0,0,1-.5-.22Z"/><path class="BX CZ" d="M60.83 190.06a.62.62 0 1 1 .31.82.61.61 0 0 1-.31-.82z"/><path class="Bb CM" d="M60 199.92a1 1 0 1 1 .51 1.36 1 1 0 0 1-.51-1.36z"/><path class="BH Bz" d="M55.85,198.1a.55.55,0,0,1,.72-.27.55.55,0,0,1,.27.72.54.54,0,0,1-1-.45Z"/><path class="BO CJ" d="M56.3 184.94a.54.54 0 1 1 .27.71.54.54 0 0 1-.27-.71z"/><path class="BB CG" d="M60.75 163.26a.34.34 0 0 1 .44-.16.33.33 0 0 1-.27.6.33.33 0 0 1-.17-.44z"/><path class="Bi Bs" d="M10.22 187.76a.7.7 0 0 1 .91-.34.68.68 0 0 1 .33.9.67.67 0 0 1-.9.34.69.69 0 0 1-.34-.9z"/><path class="Ac CX" d="M27.8 175.7a.36.36 0 0 1 .49-.18.37.37 0 1 1-.31.67.37.37 0 0 1-.18-.49z"/><path class="BO CJ" d="M34.92,144.85a.82.82,0,0,1,1.49.67.82.82,0,1,1-1.49-.67Z"/><path class="Bh Cn" d="M.3 125.83a.52.52 0 0 0-.26-.68H0v1a.53.53 0 0 0 .31-.32z"/><path class="BW Bw" d="M20.82 101.38a1.11 1.11 0 1 1 .55 1.47 1.11 1.11 0 0 1-.55-1.47z"/><path class="An Cd" d="M10.3 129.23a.33.33 0 1 1 .17.43.32.32 0 0 1-.17-.43z"/><path class="Bn Cq" d="M28.38 94.53a.44.44 0 0 1 .6-.22.45.45 0 0 1 .22.59.43.43 0 0 1-.59.22.44.44 0 0 1-.23-.59z"/><path class="Ad CA" d="M29.3,82.45a.24.24,0,1,1,.44.2.24.24,0,0,1-.44-.2Z"/><path class="Bj Bt" d="M45.44 59.56a.41.41 0 0 1 .56-.21.42.42 0 1 1-.35.76.41.41 0 0 1-.21-.55z"/><path class="Bi Bs" d="M393.13 34.85a.61.61 0 1 1 .31.81.61.61 0 0 1-.31-.81z"/><path class="Bl Cp" d="M420 19.2a.92.92 0 1 1 .46 1.21.91.91 0 0 1-.46-1.21zm-28.06 38.7a1.06 1.06 0 1 1 .53 1.4 1.05 1.05 0 0 1-.53-1.4z"/><path class="BJ CN" d="M415 77.38a.45.45 0 0 1 .82.37.45.45 0 0 1-.59.22.44.44 0 0 1-.23-.59z"/><path class="Av Br" d="M418.73 143.25a.2.2 0 0 1 .26-.09.19.19 0 0 1 .1.26.19.19 0 0 1-.26.09.2.2 0 0 1-.1-.26z"/><path class="BT Cb" d="M426.38 123.74a.53.53 0 1 1 .27.71.53.53 0 0 1-.27-.71z"/><path class="An Cd" d="M396.33 157.14a1.24 1.24 0 1 1 .62 1.64 1.23 1.23 0 0 1-.62-1.64z"/><path class="BE Cc" d="M393.18,139.24a.65.65,0,0,1,.86-.32.65.65,0,1,1-.86.32Z"/><path class="Bg Bt" d="M371.36 263.12a1.13 1.13 0 0 1 2.06.94 1.12 1.12 0 0 1-1.49.56 1.13 1.13 0 0 1-.57-1.5z"/><path class="BL CQ" d="M356 242.5a.17.17 0 1 1 .09.23.17.17 0 0 1-.09-.23z"/><path class="Ar Cg" d="M349.53 253a.37.37 0 1 1 .18.49.37.37 0 0 1-.18-.49z"/><path class="BM CC" d="M298 229.48a.92.92 0 0 1 1.21-.46.91.91 0 0 1 .45 1.21.9.9 0 0 1-1.2.45.91.91 0 0 1-.46-1.2z"/><path class="BS Bv" d="M264.4 246.42a.84.84 0 1 1 .42 1.11.83.83 0 0 1-.42-1.11z"/><path class="BD Ca" d="M304.37,243.33a1,1,0,0,1,1.83.83,1,1,0,1,1-1.83-.83Z"/><path class="AX CK" d="M288.45 239.2a.28.28 0 0 1 .37-.14.28.28 0 0 1-.23.51.28.28 0 0 1-.14-.37z"/><path class="Ai CY" d="M253.26 292.85a.26.26 0 1 1 .13.34.26.26 0 0 1-.13-.34z"/><path class="BO CJ" d="M228.1 283.6a.22.22 0 0 1 .29-.11.22.22 0 0 1 .1.29.21.21 0 0 1-.39-.18z"/><path class="BW Bw" d="M248.2 270.56a1.08 1.08 0 1 1 .54 1.42 1.07 1.07 0 0 1-.54-1.42z"/><path class="Al CP" d="M196.35 284.45a.26.26 0 0 1 .34-.13.26.26 0 0 1 .13.34.26.26 0 0 1-.34.13.26.26 0 0 1-.13-.34z"/><path class="Bh Cn" d="M219.74 292.92a.22.22 0 1 1 .11.29.22.22 0 0 1-.11-.29z"/><path class="BY Bq" d="M212 281.9a.78.78 0 0 1 1-.39.79.79 0 1 1-.66 1.44.78.78 0 0 1-.34-1.05z"/><path class="BT Cb" d="M171.7 295.5a.56.56 0 0 1 .74-.27.55.55 0 1 1-.74.27z"/><path class="BD Ca" d="M187.28 296a.454.454 0 1 1 .23.6.45.45 0 0 1-.23-.6z"/><path class="Ax CB" d="M185.18,273.77a1.06,1.06,0,0,1,1.93.88,1.06,1.06,0,0,1-1.93-.88Z"/><path class="Bk Ck" d="M153.17 297.2a.62.62 0 0 1 .82-.3.6.6 0 0 1 .3.81.61.61 0 0 1-.81.31.62.62 0 0 1-.31-.82z"/><path class="Ae Bp" d="M139.05 281.74a1 1 0 1 1 .51 1.35 1 1 0 0 1-.51-1.35z"/><path class="Am CL" d="M132.5 296.26a.38.38 0 1 1 .7.32.4.4 0 0 1-.51.19.39.39 0 0 1-.19-.51z"/><path class="Aq Bu" d="M93.4 301.52a.11.11 0 1 1 .19.09.11.11 0 0 1-.14.05.11.11 0 0 1-.05-.14z"/><path class="AY CR" d="M61.2 271a.67.67 0 1 1 .34.89.68.68 0 0 1-.34-.89zm1.6 32.08a.28.28 0 0 1 .38-.14.27.27 0 0 1 .14.38.28.28 0 0 1-.38.14.29.29 0 0 1-.14-.38z"/><path class="Af Bp" d="M73.64 294.2a.69.69 0 0 1 .91-.34.69.69 0 0 1-.57 1.25.69.69 0 0 1-.34-.91z"/><path class="Ar Cg" d="M66 288.5a.45.45 0 0 1 .59-.23.44.44 0 0 1-.37.82.45.45 0 0 1-.22-.59z"/><path class="BR Bp" d="M27.64 258.2a1 1 0 0 1 1.77.81 1 1 0 0 1-1.29.48 1 1 0 0 1-.48-1.29z"/><path class="AX CK" d="M5.94 262.9a.56.56 0 1 1 1 .46.56.56 0 1 1-1-.46z"/><path class="Bn Cq" d="M92.63 22.53a.7.7 0 0 1 .91-.34.68.68 0 0 1-.54 1.25.69.69 0 0 1-.37-.91z"/><path class="Bg Bt" d="M79.14 9.6a.93.93 0 0 1 1.7.77.93.93 0 1 1-1.7-.77z"/><path class="BE Cc" d="M90.82,58.77a.75.75,0,0,1,1-.37.75.75,0,1,1-1,.37Z"/><path class="BM CC" d="M8.32 29.1a.87.87 0 1 1 .43 1.15.86.86 0 0 1-.43-1.15z"/><path class="AV Cf" d="M41.86 83.73a.88.88 0 1 1 .44 1.16.87.87 0 0 1-.44-1.16z"/><path class="Bk Ck" d="M45.22,69.26a.26.26,0,0,1,.34-.13.26.26,0,1,1-.34.13Z"/><path class="Bf Bs" d="M63.6,62a.83.83,0,0,1,1.1-.41.83.83,0,1,1-1.1.41Z"/><path class="BR Bp" d="M27.72,14.37a.71.71,0,0,1,.93-.35.7.7,0,1,1-.93.35Z"/><path class="An Cd" d="M69.87 18.3a.16.16 0 0 1 .22-.08.15.15 0 0 1 .08.21.16.16 0 0 1-.21.09.17.17 0 0 1-.09-.22z"/><path class="BV CV" d="M101.57 4.34a.42.42 0 1 1 .76.34.41.41 0 0 1-.55.21.42.42 0 0 1-.21-.55z"/><path class="Al CP" d="M95.5.92a.74.74 0 0 1 1-.36.72.72 0 0 1 .36 1 .73.73 0 0 1-1 .37.74.74 0 0 1-.36-1.01z"/><path class="Bm CF" d="M88.22 5.5a.27.27 0 1 1 .13.36.28.28 0 0 1-.13-.36z"/><path class="BG Bv" d="M108.16 10.68a.87.87 0 0 1 1.58.71.88.88 0 0 1-1.15.44.87.87 0 0 1-.43-1.15z"/><path class="Bf Bs" d="M87.92 16a.26.26 0 1 1 .13.35.27.27 0 0 1-.13-.35z"/><path class="AY CR" d="M132 37.3a.68.68 0 0 1 .89-.33.66.66 0 0 1 .33.89.67.67 0 1 1-1.22-.56z"/><path class="BX CZ" d="M135 21.2a.81.81 0 1 1 .4 1.07.82.82 0 0 1-.4-1.07z"/><path class="BW Bw" d="M159.46 25.2a.24.24 0 1 1 .44.2.23.23 0 0 1-.32.12.24.24 0 0 1-.12-.32z"/><path class="BM CC" d="M132.22 30.72a.8.8 0 1 1 .4 1.07.81.81 0 0 1-.4-1.07z"/><path class="BA By" d="M116.23 37.58a.38.38 0 0 1 .51-.2.39.39 0 0 1 .2.52.4.4 0 0 1-.52.2.39.39 0 0 1-.19-.52z"/><path class="BI CO" d="M159.23 77.7a.48.48 0 0 1 .65-.24.49.49 0 1 1-.65.24z"/><path class="Af Bp" d="M140.57,55.67a.36.36,0,0,1,.47-.18.36.36,0,0,1,.18.47.36.36,0,0,1-.65-.29Z"/><path class="Ad CA" d="M144.53,50.27a1.24,1.24,0,0,1,2.26,1,1.24,1.24,0,1,1-2.26-1Z"/><path class="At Br" d="M168.07,110.1a.88.88,0,0,1,1.17-.44.87.87,0,0,1,.44,1.17.88.88,0,1,1-1.61-.73Z"/><path class="Az Bt" d="M79 91.6a.17.17 0 0 1 .23-.09.18.18 0 0 1 .09.24.19.19 0 0 1-.24.08.18.18 0 0 1-.08-.23z"/><path class="Ab CS" d="M125.4 104a.72.72 0 1 1 1.31.59.71.71 0 0 1-.95.36.72.72 0 0 1-.36-.95z"/><path class="BJ CN" d="M157.58,110a.36.36,0,0,1,.47-.18.35.35,0,0,1,.17.46.35.35,0,1,1-.64-.28Z"/><path class="BH Bz" d="M132.92 117.52a.77.77 0 0 1 1.4.63.76.76 0 0 1-1 .38.77.77 0 0 1-.4-1.01z"/><path class="Au Ce" d="M124.14 137.7a.86.86 0 0 1 1.15-.43.87.87 0 0 1 .43 1.14.87.87 0 0 1-1.58-.71zm1.25 3.86a1 1 0 0 1 1.38-.51 1.034 1.034 0 0 1-.86 1.88 1 1 0 0 1-.52-1.37z"/><path class="BS Bv" d="M102.5 184.27a.33.33 0 0 1 .43-.16.31.31 0 0 1 .15.42.32.32 0 0 1-.42.16.32.32 0 0 1-.16-.42z"/><path class="BH Bz" d="M117.84 141.48a.15.15 0 0 1 .21-.08.16.16 0 0 1 .09.21.17.17 0 0 1-.22.09.17.17 0 0 1-.08-.22z"/><path class="Ac CX" d="M96.6 162.16a.68.68 0 0 1 .89-.33.66.66 0 1 1-.89.33z"/><path class="BP Bq" d="M73.7 194.7a.28.28 0 0 1 .37-.13.26.26 0 0 1 .13.36.27.27 0 0 1-.36.14.28.28 0 0 1-.14-.37z"/><path class="Ar Cg" d="M116.06 220.1a.49.49 0 1 1 .24.65.5.5 0 0 1-.24-.65z"/><path class="BJ CN" d="M30.52,194.53a.53.53,0,0,1,.7-.27.53.53,0,1,1-.7.27Z"/><path class="BB CG" d="M50.76,224.43a.38.38,0,0,1,.7.31.38.38,0,0,1-.7-.31Z"/><path class="Ap CH" d="M42.1 224.14a.74.74 0 0 1 1-.37.73.73 0 0 1 .36 1 .74.74 0 0 1-1 .37.73.73 0 0 1-.36-1z"/><path class="Bg Bt" d="M12.8 225.15a.45.45 0 0 1 .59-.22.44.44 0 0 1 .22.58.45.45 0 0 1-.59.22.44.44 0 0 1-.22-.58z"/><path class="Ae Bp" d="M23.4 228.1a.81.81 0 0 1 1.09-.41.823.823 0 1 1-1.09.41z"/><path class="Bf Bs" d="M326.76 21.13a1.41 1.41 0 1 1 .7 1.86 1.4 1.4 0 0 1-.7-1.86z"/><path class="BY Bq" d="M387.08 42.6a.7.7 0 0 1 .93-.35.72.72 0 0 1 .35.93.7.7 0 0 1-1.28-.58z"/><path class="AV Cf" d="M393.82 69.5a.88.88 0 0 1 1.16-.44.89.89 0 0 1 .44 1.17.88.88 0 1 1-1.6-.73z"/><path class="Ba Bs" d="M392.67 70.47a.54.54 0 0 1 .73-.27.55.55 0 0 1 .28.73.56.56 0 0 1-.74.27.55.55 0 0 1-.27-.73z"/><path class="AY CR" d="M397.1 91.8a.9.9 0 0 1 1.2-.45.911.911 0 1 1-1.2.45z"/><path class="AV Cf" d="M414.75 129.68a1.3 1.3 0 1 1 .65 1.72 1.29 1.29 0 0 1-.65-1.72z"/><path class="BG Bv" d="M443.25,137a.58.58,0,1,1,1.06.48.58.58,0,0,1-1.06-.48Z"/><path class="BC CI" d="M401.88 121.92a1.3 1.3 0 1 1 .65 1.72 1.31 1.31 0 0 1-.65-1.72z"/><path class="BZ CU" d="M426 151.44a.27.27 0 0 1 .5.22.28.28 0 0 1-.37.14.27.27 0 0 1-.13-.36z"/><path class="Ag Ci" d="M414.9 164.7a.3.3 0 1 1 .15.41.31.31 0 0 1-.15-.41z"/><path class="Ar Cg" d="M429.32,210.4a.51.51,0,0,1,.93.41.51.51,0,1,1-.93-.41Z"/><path class="Bk Ck" d="M416.46 237.56a.88.88 0 0 1 1.18-.44.89.89 0 0 1 .45 1.18.91.91 0 0 1-1.19.45.89.89 0 0 1-.44-1.19z"/><path class="Bj Bt" d="M378.53 236.35a.21.21 0 0 1 .28-.1.2.2 0 0 1 .1.27.21.21 0 0 1-.27.11.22.22 0 0 1-.11-.28z"/><path class="Bb CM" d="M401.5 241.26a.83.83 0 0 1 1.11-.41.84.84 0 1 1-1.11.41z"/><path class="BF CD" d="M399.1 244.75a.84.84 0 1 1 .42 1.12.85.85 0 0 1-.42-1.12z"/><path class="Ad CA" d="M434.77 236.93a.46.46 0 0 1 .84.38.45.45 0 0 1-.61.23.46.46 0 0 1-.23-.61z"/><path class="Ac CX" d="M423.47 285.8a1.11 1.11 0 0 1 1.45-.55 1.09 1.09 0 1 1-1.46.55z"/><path class="Ag Ci" d="M345.92 222.3a.87.87 0 1 1 .43 1.15.87.87 0 0 1-.43-1.15z"/><circle class="BS Bv" cx="355.07" cy="274.23" r=".96"/><path class="BA By" d="M368.8 265.5a.79.79 0 1 1 .39 1 .78.78 0 0 1-.39-1z"/><circle class="Au Ce" cx="331.92" cy="260.49" r=".79"/><path class="BI CO" d="M332.34 291a.23.23 0 0 1 .29-.11.22.22 0 0 1 .1.29.21.21 0 0 1-.28.1.22.22 0 0 1-.11-.28z"/><path class="Af Bp" d="M357.48 311.26a.64.64 0 0 1 .85-.32.65.65 0 1 1-.53 1.18.64.64 0 0 1-.32-.86z"/><path class="Ax CB" d="M314.27 318.2a.52.52 0 0 1 .73-.21.53.53 0 0 1 .26.69.52.52 0 0 1-.99-.48z"/><path class="AW CW" d="M316.8 347.85a.14.14 0 0 1 .19-.08.15.15 0 0 1 .07.19.14.14 0 0 1-.19.08.14.14 0 0 1-.07-.19z"/><path class="Bn Cq" d="M304.54 295.85a.58.58 0 1 1 .29.76.58.58 0 0 1-.29-.76z"/><path class="Bd Bx" d="M278.93,324.28a.86.86,0,1,1,1.57.71.86.86,0,1,1-1.57-.71Z"/><path class="Ap CH" d="M217 350.65a.78.78 0 0 0-1 .39.67.67 0 0 0-.07.31h1.56a.76.76 0 0 0-.49-.7z"/><path class="AZ Bq" d="M171.2 342.15a.22.22 0 0 1 .31-.11.23.23 0 0 1 .11.3.23.23 0 0 1-.3.11.23.23 0 0 1-.12-.3z"/><path class="BP Bq" d="M121.65 331.65a.75.75 0 1 1 .37 1 .75.75 0 0 1-.37-1z"/><path class="BQ Cs" d="M123.7 309.82a.9.9 0 1 1 .45 1.19.9.9 0 0 1-.45-1.19z"/><path class="At Br" d="M98.72,348.94a.92.92,0,0,1,1.22-.46.91.91,0,0,1,.46,1.22.92.92,0,1,1-1.68-.76Z"/><path class="BA By" d="M77 335.4a1 1 0 1 1 .49 1.32 1 1 0 0 1-.49-1.32z"/><path class="Am CL" d="M34.72,329.68a1.21,1.21,0,0,1,1.61-.6,1.22,1.22,0,1,1-1.61.6Z"/><path class="BY Bq" d="M28 345.94a1.29 1.29 0 1 1 .64 1.71 1.3 1.3 0 0 1-.64-1.71z"/><path class="Ay Bx" d="M158.28,252.26a.74.74,0,0,1,1-.37.75.75,0,0,1,.37,1,.74.74,0,1,1-1.35-.62Z"/><path class="BP Bq" d="M189.32 235.4a.36.36 0 0 1 .49-.18.37.37 0 0 1 .19.49.39.39 0 0 1-.5.19.37.37 0 0 1-.18-.5z"/><path class="Bm CF" d="M166.82 216.77a.47.47 0 0 1 .61-.23.46.46 0 0 1-.38.83.45.45 0 0 1-.23-.6z"/><path class="Ax CB" d="M188.8,220.46a.89.89,0,1,1,1.62.74.89.89,0,0,1-1.62-.74Z"/><path class="BX CZ" d="M178.48 202.63a.66.66 0 1 1 .33.87.65.65 0 0 1-.33-.87z"/><path class="Bj Bt" d="M118 230.45a.29.29 0 0 1 .37-.14.28.28 0 0 1-.23.51.29.29 0 0 1-.14-.37z"/><path class="BQ Cs" d="M154.82,212.68a.63.63,0,0,1,1.15.53.63.63,0,1,1-1.15-.53Z"/><path class="BJ CN" d="M97.5 170.34a.49.49 0 0 1 .67-.25.5.5 0 1 1-.42.91.49.49 0 0 1-.25-.66z"/><path class="BE Cc" d="M127.28 161.5a.19.19 0 0 1 .27-.1.2.2 0 0 1 .1.26.2.2 0 0 1-.27.1.19.19 0 0 1-.1-.26z"/><path class="BI CO" d="M133.8 138.25a.79.79 0 0 1 1-.39.79.79 0 0 1-.65 1.43.79.79 0 0 1-.35-1.04z"/><path class="At Br" d="M147.94 158.47a.16.16 0 0 1 .22-.08.17.17 0 0 1 .09.23.18.18 0 0 1-.23.08.17.17 0 0 1-.08-.23z"/><path class="BE Cc" d="M120 152.28a.57.57 0 0 1 .75-.28.56.56 0 1 1-.47 1 .57.57 0 0 1-.28-.72z"/><path class="AX CK" d="M161 128.26a1 1 0 1 1 .52 1.39 1.06 1.06 0 0 1-.52-1.39z"/><path class="Al CP" d="M121.53 119.17a.2.2 0 0 1 .27-.1.21.21 0 0 1 .1.27.21.21 0 0 1-.27.1.2.2 0 0 1-.1-.27z"/><path class="BL CQ" d="M144.54 145.37a.22.22 0 1 1 .11.29.22.22 0 0 1-.11-.29z"/><path class="BF CD" d="M65.1 117.78a.78.78 0 1 1 .39 1 .78.78 0 0 1-.39-1z"/><path class="Bk Ck" d="M113.68 33.3a.36.36 0 0 1 .46-.18.35.35 0 0 1 .17.46.34.34 0 1 1-.63-.28z"/><path class="BR Bp" d="M131.92 36.05a.94.94 0 1 1 .47 1.24.93.93 0 0 1-.47-1.24z"/><path class="AY CR" d="M121.57 14.4a.32.32 0 0 1 .43-.17.33.33 0 0 1 .16.43.31.31 0 0 1-.43.16.32.32 0 0 1-.16-.42z"/><path class="Ad CA" d="M132.73 10a.71.71 0 0 1 .94-.36.7.7 0 0 1 .35.94.71.71 0 0 1-.94.36.7.7 0 0 1-.35-.94z"/><path class="Ag Ci" d="M423.6 331.24a.87.87 0 0 1 1.17-.44.89.89 0 0 1 .45 1.17.9.9 0 0 1-1.18.45.88.88 0 0 1-.44-1.18z"/><path class="Ar Cg" d="M414.17 322.87a.7.7 0 1 1 .35.93.71.71 0 0 1-.35-.93z"/><path class="Ad CA" d="M416.22 342.52a.76.76 0 0 1 1-.38.77.77 0 0 1 .38 1 .75.75 0 0 1-1 .37.76.76 0 0 1-.38-.99z"/><path class="Ap CH" d="M333 344.6a.52.52 0 0 1 .68-.26.51.51 0 0 1-.42.94.52.52 0 0 1-.26-.68z"/><path class="Bb CM" d="M269.46 310.75a.75.75 0 1 1 .37 1 .74.74 0 0 1-.37-1z"/><path class="Az Bt" d="M274.45 333.5a.82.82 0 1 1 .41 1.09.84.84 0 0 1-.41-1.09z"/><path class="BN Bu" d="M208.3 327.5a.9.9 0 0 1 1.19-.44.891.891 0 1 1-1.19.44z"/><path class="BY Bq" d="M217.82 350.56a1 1 0 0 0-1.36.51.88.88 0 0 0-.06.28h2a1 1 0 0 0-.58-.79z"/><path class="Aj Cl" d="M191.07 282.62a.42.42 0 1 1 .77.35.43.43 0 0 1-.56.22.43.43 0 0 1-.21-.57z"/><path class="BE Cc" d="M188.3,304.78a.41.41,0,0,1,.54-.21.42.42,0,0,1,.2.54.41.41,0,1,1-.74-.33Z"/><path class="BF CD" d="M117 291a.66.66 0 1 1 .33.88.65.65 0 0 1-.33-.88z"/><path class="As Co" d="M110.28 276.3a.45.45 0 1 1 .83.37.47.47 0 0 1-.61.23.46.46 0 0 1-.22-.6z"/><path class="BO CJ" d="M63.4 268.35a1.08 1.08 0 0 1 1.43-.53 1.06 1.06 0 0 1 .53 1.42 1.08 1.08 0 0 1-1.42.54 1.09 1.09 0 0 1-.54-1.43z"/><path class="Ao Cm" d="M73.08 211.8a.85.85 0 1 1 1.54.7.83.83 0 0 1-1.12.42.85.85 0 0 1-.42-1.12z"/><path class="Ah CT" d="M43.6 242a.82.82 0 0 1 1.07-.4.8.8 0 1 1-1.07.4z"/><path class="AW CW" d="M43.94,172.37a.27.27,0,1,1,.49.23.27.27,0,0,1-.49-.23Z"/><path class="Ar Cg" d="M58.48 207.12a.87.87 0 1 1 .44 1.15.87.87 0 0 1-.44-1.15z"/><path class="Ae Bp" d="M34.85 195.8a.32.32 0 1 1 .16.42.31.31 0 0 1-.16-.42z"/><path class="Ba Bs" d="M63.86 156.87a.36.36 0 1 1 .18.47.36.36 0 0 1-.18-.47z"/><path class="BP Bq" d="M41,161.65a.89.89,0,0,1,1.62.73.89.89,0,0,1-1.62-.73Z"/><path class="AV Cf" d="M96.7 154.6a.2.2 0 1 1 .37.17.21.21 0 0 1-.27.11.21.21 0 0 1-.1-.28z"/><path class="BO CJ" d="M66.17 136.7a.81.81 0 0 1 1.48.67.81.81 0 1 1-1.48-.67z"/><path class="Ai CY" d="M44.4 110.52a.37.37 0 0 1 .5-.19.38.38 0 1 1-.32.69.37.37 0 0 1-.18-.5z"/><path class="BA By" d="M62.2 57.34a.56.56 0 0 1 .74-.27.55.55 0 0 1-.46 1 .56.56 0 0 1-.28-.73z"/><path class="BS Bv" d="M34.86 86.2a.36.36 0 0 1 .48-.19.37.37 0 0 1 .18.48.36.36 0 0 1-.48.19.37.37 0 0 1-.18-.48z"/><path class="Ad CA" d="M75.12,52.2a1.22,1.22,0,1,1,2.23,1,1.22,1.22,0,0,1-2.23-1Z"/><path class="Bf Bs" d="M118.38 46.5a1.32 1.32 0 1 1 .66 1.75 1.32 1.32 0 0 1-.66-1.75z"/><path class="Ae Bp" d="M73.55 10.34a.37.37 0 0 1 .48-.18.36.36 0 0 1 .18.47.35.35 0 0 1-.48.18.36.36 0 0 1-.18-.47z"/><path class="Aq Bu" d="M83.85 23.2a.42.42 0 1 1 .21.55.42.42 0 0 1-.21-.55z"/><path class="BB CG" d="M83.42,1.54a.61.61,0,0,1,.81-.31.62.62,0,0,1,.31.82.62.62,0,0,1-1.12-.51Z"/><path class="Aq Bu" d="M110.86 28.6a.71.71 0 1 1 1.3.58.71.71 0 1 1-1.3-.58z"/><path class="Ag Ci" d="M2,254.1a.52.52,0,0,1,1,.43.52.52,0,0,1-1-.43Z"/><path class="An Cd" d="M.9,276.26a.67.67,0,0,1,1.22.56.67.67,0,0,1-1.22-.56Z"/><path class="Am CL" d="M13.68,336.86a1.33,1.33,0,0,1,2.43,1.1,1.33,1.33,0,0,1-2.43-1.1Z"/><path class="Be Ct" d="M8.1 343.17a.75.75 0 0 1 1-.37.74.74 0 1 1-1 .37z"/><path class="Ab CS" d="M433.47 258.17a.87.87 0 1 1 .43 1.15.86.86 0 0 1-.43-1.15z"/><path class="Au Ce" d="M439.2,300.37a.39.39,0,0,1,.52-.2.4.4,0,0,1,.2.53.4.4,0,0,1-.72-.33Z"/><path class="Ac CX" d="M402.9 269.42a.23.23 0 1 1 .11.31.23.23 0 0 1-.11-.31z"/><path class="Aq Bu" d="M385.15 330.4a.77.77 0 1 1 .39 1 .77.77 0 0 1-.39-1z"/><path class="BB CG" d="M380.23,303.42a1.1,1.1,0,0,1,1.46-.55,1.11,1.11,0,1,1-1.46.55Z"/><path class="Af Bp" d="M359.8 310.5a.29.29 0 0 1 .38-.14.28.28 0 0 1-.24.51.28.28 0 0 1-.14-.37z"/><path class="BK CE" d="M368.47 320.25a.51.51 0 0 1 .67-.25.51.51 0 0 1-.42.92.51.51 0 0 1-.25-.67z"/><path class="Bb CM" d="M348.55 338.9a.94.94 0 1 1 1.72.78.94.94 0 0 1-1.72-.78z"/><circle class="BO CJ" cx="284.91" cy="338.47" r=".74"/></g><g fill="#231f20"><path d="M396 45.3a7.44 7.44 0 0 1-7.41 7.43h0a7.41 7.41 0 0 1 7.41 7.09h0a7.42 7.42 0 0 1 7.4-7.09h0a7.44 7.44 0 0 1-7.4-7.43zM79 287.7a7.43 7.43 0 0 1-7.42 7.43h0a7.43 7.43 0 0 1 7.4 7.1h0a7.44 7.44 0 0 1 7.4-7.1h0A7.42 7.42 0 0 1 79 287.7zm83.7-276.6a7.43 7.43 0 0 1-7.41 7.43h0a7.42 7.42 0 0 1 7.39 7.1h0a7.41 7.41 0 0 1 7.39-7.09h0a7.43 7.43 0 0 1-7.37-7.44zm100.8 93.72a4.52 4.52 0 0 1-4.5 4.52h0a4.49 4.49 0 0 1 4.49 4.3h0a4.49 4.49 0 0 1 4.49-4.3h0a4.53 4.53 0 0 1-4.48-4.52zm121.03 181.33a3.18 3.18 0 0 1-3.18 3.19h0a3.2 3.2 0 0 1 3.18 3.05h0a3.2 3.2 0 0 1 3.18-3.05h0a3.19 3.19 0 0 1-3.18-3.19z"/><path d="M37.35 42.37a3.19 3.19 0 0 1-3.19 3.19h0a3.19 3.19 0 0 1 3.18 3h0a3.19 3.19 0 0 1 3.18-3h0a3.18 3.18 0 0 1-3.17-3.19z" class="Br"/><path d="M147.76 111.4a3.19 3.19 0 0 1-3.18 3.19h0a3.19 3.19 0 0 1 3.18 3h0a3.19 3.19 0 0 1 3.18-3h0a3.2 3.2 0 0 1-3.18-3.19zM23.6 193.87a3.19 3.19 0 0 1-3.18 3.19h0a3.19 3.19 0 0 1 3.18 3h0a3.19 3.19 0 0 1 3.18-3h0a3.2 3.2 0 0 1-3.18-3.19z"/><path d="M175.74 322.65a3.19 3.19 0 0 1-3.19 3.19h0a3.2 3.2 0 0 1 3.18 3.05h0a3.2 3.2 0 0 1 3.18-3.05h0a3.18 3.18 0 0 1-3.17-3.19zM397.6 182a3.18 3.18 0 0 1-3.18 3.19h0a3.19 3.19 0 0 1 3.17 3h0a3.19 3.19 0 0 1 3.17-3h0a3.19 3.19 0 0 1-3.16-3.19z" class="Br"/></g></g></svg>